<svg width="1440" height="287" viewBox="0 0 1440 287" fill="none" xmlns="http://www.w3.org/2000/svg">
<g clip-path="url(#clip0_2021_140)">
<rect width="1440" height="287" fill="white"/>
<path d="M3.58893e-05 48H48L48 -5.81967e-07" stroke="#E5E5E5"/>
<path d="M48 287L48 239H0" stroke="#E5E5E5"/>
<rect width="1344" height="287" transform="translate(48)" fill="white"/>
<path d="M-48.1974 -249.544C-48.1974 -249.544 -232.578 -639.312 52.0432 -567.944C336.665 -496.577 332.991 36.3558 603.032 52.5494C744.993 61.0624 808.988 -95.6991 709.941 -296.915C610.894 -498.13 309.612 -657.16 157.896 -783.82C6.17949 -910.479 28.0075 -973.956 207.597 -1033.19C387.186 -1092.42 509.728 -1137.59 523.032 -1017.6C536.337 -897.611 388.563 -883.431 468.517 -762.634C548.471 -641.837 735.783 -762.634 735.783 -762.634C735.783 -762.634 944.253 -938.776 1101.49 -847.075C1258.72 -755.375 1277.45 -666.212 1174.77 -603.185C1072.09 -540.159 962.51 -541.893 893.078 -478.978" stroke="#F0F8FF" stroke-width="47" stroke-linecap="round"/>
<rect x="48" y="48" width="1344" height="191" stroke="#E5E5E5"/>
<path d="M73.312 100.608H84.16C87.472 100.608 88.816 99.264 90.256 95.328L91.552 95.808L87.136 108H64.528V106.608C74.848 96.24 80.944 89.76 80.944 82.704C80.944 78.288 78.736 76.032 75.376 76.032C71.344 76.032 68.944 79.008 68.32 84.528H66.928C66.928 74.976 72.928 68.832 80.656 68.832C86.992 68.832 90.448 72.576 90.448 77.52C90.448 85.248 81.952 93.072 73.312 100.464V100.608ZM93.6531 108V106.608C96.5331 106.608 97.1571 105.648 97.1571 102.336V90.048C97.1571 86.4 97.0611 85.536 94.1331 86.736L93.5571 85.344L104.357 80.928L105.797 82.032V87.168H105.941C108.293 83.712 110.981 81.168 115.013 81.168C118.469 81.168 121.157 83.376 121.157 89.184V102.336C121.157 105.648 121.733 106.608 124.469 106.608V108H109.829V106.608C112.037 106.608 112.517 105.648 112.517 102.336V89.712C112.517 87.552 111.845 86.448 110.357 86.448C109.013 86.448 107.477 87.312 105.797 89.952V102.336C105.797 105.648 106.277 106.608 108.485 106.608V108H93.6531ZM153.605 103.728L154.133 105.12L143.477 108.816L141.749 107.52V103.392H141.605C140.165 106.56 137.573 108.768 134.069 108.768C129.317 108.768 125.573 104.496 125.573 96.096C125.573 86.064 130.469 81.216 135.893 81.216C138.389 81.216 140.597 82.224 141.749 83.76V77.904C141.749 74.544 141.749 73.776 138.869 75.264L138.245 74.064L149.477 68.208L150.389 69.12V100.272C150.389 103.872 150.581 104.784 153.605 103.728ZM138.245 103.536C139.397 103.536 140.597 102.816 141.749 100.608V93.024C141.749 89.28 140.789 85.008 138.293 85.008C136.133 85.008 134.693 87.84 134.693 94.56C134.693 100.08 135.653 103.536 138.245 103.536ZM165.55 108V106.608C169.774 106.608 170.878 105.264 170.878 102.336V75.264C170.878 72.336 169.774 70.992 165.55 70.992V69.6H183.55C194.542 69.6 199.342 73.056 199.342 80.928C199.342 90 193.054 93.216 186.094 93.408C183.694 93.456 182.11 92.976 181.15 92.496V102.336C181.15 105.264 182.35 106.608 186.958 106.608V108H165.55ZM183.982 90.24C187.966 90.24 189.358 85.968 189.358 80.736C189.358 75.36 187.822 72.288 184.318 72.288C183.358 72.288 182.494 72.48 181.822 72.816C181.342 73.056 181.15 73.488 181.15 74.016V89.52C181.582 89.808 182.686 90.24 183.982 90.24ZM221.476 81.216C223.732 81.216 224.836 82.608 224.836 85.104C224.836 87.936 223.396 90.048 221.284 90.048C220.036 90.048 219.508 89.568 218.548 88.56C217.636 87.552 217.3 87.36 216.724 87.36C215.524 87.36 214.276 89.184 213.844 91.488V101.568C213.844 105.36 214.9 106.416 219.604 106.416V108H201.7V106.608C204.58 106.608 205.204 105.648 205.204 102.336V90.048C205.204 86.4 205.108 85.536 202.18 86.736L201.604 85.344L212.404 80.928L213.844 82.032V87.36H213.988C215.332 85.008 218.26 81.216 221.476 81.216ZM238.47 108.768C230.358 108.768 225.51 103.68 225.51 95.136C225.51 86.832 230.358 81.216 238.47 81.216C246.534 81.216 251.43 86.304 251.43 94.8C251.43 103.104 246.534 108.768 238.47 108.768ZM239.382 105.744C241.782 105.744 242.502 102.144 242.502 99.216C242.502 92.688 241.062 84.24 237.558 84.24C235.158 84.24 234.438 87.84 234.438 90.768C234.438 97.296 235.878 105.744 239.382 105.744ZM255.29 105.264V78C255.29 74.64 255.338 73.872 252.506 75.36L251.834 74.16L262.97 68.208L263.978 69.12V86.208H264.17C266.138 83.328 268.538 81.216 272.33 81.216C276.986 81.216 280.154 85.344 280.154 93.6C280.154 103.2 275.786 108.72 267.29 108.72C263.978 108.72 259.226 108 255.29 105.264ZM263.978 89.328V103.344C264.746 104.736 265.802 105.648 267.146 105.648C269.69 105.648 270.89 102.336 270.89 94.896C270.89 88.464 269.642 86.4 267.626 86.4C265.994 86.4 264.794 87.84 263.978 89.328ZM293.527 69.12V102.336C293.527 105.648 294.199 106.608 297.367 106.608V108H281.047V106.608C284.167 106.608 284.887 105.648 284.887 102.336V77.712C284.887 74.4 284.839 73.632 281.719 75.216L281.095 74.016L292.423 68.208L293.527 69.12ZM318.331 97.44H319.723C318.331 105.36 314.731 108.768 308.875 108.768C302.491 108.768 297.979 104.208 297.979 95.568C297.979 88.128 302.107 81.216 309.259 81.216C316.843 81.216 319.531 87.312 319.531 94.08H306.475C306.715 100.032 308.587 103.056 312.571 103.056C314.635 103.056 317.131 101.664 318.331 97.44ZM309.115 83.952C306.859 83.952 306.475 86.208 306.427 91.392H311.323C311.323 86.352 311.179 83.952 309.115 83.952ZM362.655 89.088V102.336C362.655 105.648 363.279 106.608 366.015 106.608V108H351.807V106.608C353.727 106.608 354.159 105.648 354.159 102.336V89.472C354.159 87.456 353.439 86.448 352.095 86.448C350.895 86.448 349.647 87.168 347.967 89.808V102.336C347.967 105.648 348.399 106.608 350.319 106.608V108H337.119V106.608C339.039 106.608 339.471 105.648 339.471 102.336V89.472C339.471 87.456 338.799 86.448 337.455 86.448C336.255 86.448 334.911 87.168 333.231 89.904V102.336C333.231 105.648 333.663 106.608 335.583 106.608V108H321.231V106.608C324.111 106.608 324.735 105.648 324.735 102.336V90C324.735 86.352 324.639 85.488 321.711 86.688L321.135 85.296L325.215 83.664L331.839 80.928L333.231 82.032V87.168H333.375C335.343 84.24 337.791 81.168 341.967 81.168C345.039 81.168 347.343 82.992 347.871 87.168H348.111C350.079 84.24 352.479 81.168 356.607 81.168C360.111 81.168 362.655 83.52 362.655 89.088Z" fill="black"/>
<path d="M66.682 157H65.368V144.13H66.97L73.936 155.146H73.972V144.13H75.286V157H73.684L66.718 145.984H66.682V157ZM81.4665 157.252C78.7125 157.252 77.0565 155.272 77.0565 152.428C77.0565 149.566 78.7125 147.586 81.4665 147.586C84.2205 147.586 85.8765 149.566 85.8765 152.428C85.8765 155.272 84.2205 157.252 81.4665 157.252ZM81.4665 156.226C83.6085 156.226 84.6525 154.534 84.6525 152.428C84.6525 150.304 83.6085 148.612 81.4665 148.612C79.3245 148.612 78.2805 150.304 78.2805 152.428C78.2805 154.534 79.3245 156.226 81.4665 156.226ZM90.6823 157H89.3863L86.4703 147.82H87.7663L90.0523 155.668H90.0883L92.2303 147.82H93.5443L95.6863 155.668H95.7223L98.0263 147.82H99.2863L96.3523 157H95.0383L92.8783 149.242H92.8423L90.6823 157ZM105.793 157H104.479V144.13H105.793V157ZM116.528 147.604C118.166 147.604 119.534 148.522 119.534 150.556V157H118.364V150.808C118.364 149.638 117.824 148.63 116.24 148.63C114.494 148.63 113.342 149.854 113.342 151.204V157H112.172V144.13H113.342V149.134H113.378C113.9 148.378 114.89 147.604 116.528 147.604ZM124.149 157.234C122.313 157.234 121.143 156.208 121.143 154.678C121.143 152.698 122.547 152.068 124.923 151.654C126.435 151.384 127.407 151.276 127.407 150.178C127.407 149.242 126.795 148.612 125.319 148.612C123.537 148.612 122.907 149.242 122.817 150.592H121.575C121.665 148.972 122.691 147.586 125.355 147.586C127.047 147.586 128.541 148.306 128.541 150.502V155.092C128.541 155.83 128.649 156.172 129.063 156.172C129.135 156.172 129.207 156.172 129.315 156.154V157C129.117 157.036 128.919 157.072 128.703 157.072C127.929 157.072 127.479 156.766 127.407 155.614H127.371C126.741 156.658 125.643 157.234 124.149 157.234ZM124.293 156.208C126.165 156.208 127.407 155.218 127.407 153.562V151.852C127.137 152.23 126.165 152.446 125.067 152.626C123.285 152.95 122.367 153.4 122.367 154.57C122.367 155.632 122.961 156.208 124.293 156.208ZM134.357 157H133.025L129.659 147.82H130.955L133.709 155.812H133.727L136.463 147.82H137.723L134.357 157ZM146.743 151.996C146.743 152.248 146.743 152.5 146.725 152.644H139.453C139.471 154.498 140.461 156.244 142.621 156.244C144.511 156.244 145.249 154.948 145.429 154.192H146.617C146.167 155.866 144.907 157.252 142.603 157.252C139.795 157.252 138.229 155.2 138.229 152.41C138.229 149.476 139.957 147.586 142.603 147.586C145.249 147.586 146.743 149.44 146.743 151.996ZM139.453 151.618H145.501C145.501 149.98 144.439 148.594 142.549 148.594C140.767 148.594 139.543 149.908 139.453 151.618ZM153.49 157H152.32V144.13H153.49V157ZM159.549 157.252C156.795 157.252 155.139 155.272 155.139 152.428C155.139 149.566 156.795 147.586 159.549 147.586C162.303 147.586 163.959 149.566 163.959 152.428C163.959 155.272 162.303 157.252 159.549 157.252ZM159.549 156.226C161.691 156.226 162.735 154.534 162.735 152.428C162.735 150.304 161.691 148.612 159.549 148.612C157.407 148.612 156.363 150.304 156.363 152.428C156.363 154.534 157.407 156.226 159.549 156.226ZM172.323 149.26V147.82H173.493V156.424C173.493 159.034 171.873 160.294 169.353 160.294C166.869 160.294 165.555 159.088 165.411 157.486H166.635C166.815 158.476 167.589 159.268 169.371 159.268C171.225 159.268 172.323 158.458 172.323 156.586V154.876H172.287C171.747 155.83 170.739 156.568 169.191 156.568C166.995 156.568 165.159 155.128 165.159 152.068C165.159 149.044 166.995 147.604 169.191 147.604C170.739 147.604 171.747 148.342 172.287 149.26H172.323ZM169.353 155.542C171.045 155.542 172.323 154.426 172.323 152.068C172.323 149.746 171.045 148.63 169.353 148.63C167.463 148.63 166.383 149.998 166.383 152.068C166.383 154.174 167.463 155.542 169.353 155.542ZM179.535 157.252C176.781 157.252 175.125 155.272 175.125 152.428C175.125 149.566 176.781 147.586 179.535 147.586C182.289 147.586 183.945 149.566 183.945 152.428C183.945 155.272 182.289 157.252 179.535 157.252ZM179.535 156.226C181.677 156.226 182.721 154.534 182.721 152.428C182.721 150.304 181.677 148.612 179.535 148.612C177.393 148.612 176.349 150.304 176.349 152.428C176.349 154.534 177.393 156.226 179.535 156.226ZM185.064 159.178V158.404C185.64 158.188 185.82 157.864 185.802 157H185.064V155.488H186.576V157C186.576 158.026 186.288 158.8 185.064 159.178ZM197.538 157.234C194.046 157.234 191.634 154.48 191.634 150.574C191.634 146.686 194.028 143.896 197.556 143.896C200.562 143.896 202.524 145.822 202.848 148.234H201.48C201.228 146.794 200.166 145.048 197.538 145.048C194.424 145.048 193.002 147.694 193.002 150.574C193.002 153.454 194.442 156.082 197.538 156.082C200.256 156.082 201.39 154.21 201.534 152.428H202.902C202.596 155.236 200.598 157.234 197.538 157.234ZM208.451 157.252C205.697 157.252 204.041 155.272 204.041 152.428C204.041 149.566 205.697 147.586 208.451 147.586C211.205 147.586 212.861 149.566 212.861 152.428C212.861 155.272 211.205 157.252 208.451 157.252ZM208.451 156.226C210.593 156.226 211.637 154.534 211.637 152.428C211.637 150.304 210.593 148.612 208.451 148.612C206.309 148.612 205.265 150.304 205.265 152.428C205.265 154.534 206.309 156.226 208.451 156.226ZM215.682 157H214.512V144.13H215.682V157ZM221.74 157.252C218.986 157.252 217.33 155.272 217.33 152.428C217.33 149.566 218.986 147.586 221.74 147.586C224.494 147.586 226.15 149.566 226.15 152.428C226.15 155.272 224.494 157.252 221.74 157.252ZM221.74 156.226C223.882 156.226 224.926 154.534 224.926 152.428C224.926 150.304 223.882 148.612 221.74 148.612C219.598 148.612 218.554 150.304 218.554 152.428C218.554 154.534 219.598 156.226 221.74 156.226ZM231.617 147.604C231.941 147.604 232.193 147.622 232.409 147.658V148.81C232.229 148.774 232.031 148.756 231.851 148.756C230.195 148.756 228.971 150.088 228.971 151.87V157H227.801V147.82H228.971V149.692H229.007C229.475 148.486 230.321 147.604 231.617 147.604ZM238.772 157H237.458V144.13H242.408C244.784 144.13 246.566 145.138 246.566 147.838C246.566 150.538 244.784 151.564 242.408 151.564H238.772V157ZM238.772 150.412H242.534C244.28 150.412 245.198 149.602 245.198 147.838C245.198 146.092 244.28 145.282 242.534 145.282H238.772V150.412ZM250.149 157.234C248.313 157.234 247.143 156.208 247.143 154.678C247.143 152.698 248.547 152.068 250.923 151.654C252.435 151.384 253.407 151.276 253.407 150.178C253.407 149.242 252.795 148.612 251.319 148.612C249.537 148.612 248.907 149.242 248.817 150.592H247.575C247.665 148.972 248.691 147.586 251.355 147.586C253.047 147.586 254.541 148.306 254.541 150.502V155.092C254.541 155.83 254.649 156.172 255.063 156.172C255.135 156.172 255.207 156.172 255.315 156.154V157C255.117 157.036 254.919 157.072 254.703 157.072C253.929 157.072 253.479 156.766 253.407 155.614H253.371C252.741 156.658 251.643 157.234 250.149 157.234ZM250.293 156.208C252.165 156.208 253.407 155.218 253.407 153.562V151.852C253.137 152.23 252.165 152.446 251.067 152.626C249.285 152.95 248.367 153.4 248.367 154.57C248.367 155.632 248.961 156.208 250.293 156.208ZM258.045 157H256.875V144.13H258.045V157ZM261.367 157H260.197V144.13H261.367V157ZM271.547 151.996C271.547 152.248 271.547 152.5 271.529 152.644H264.257C264.275 154.498 265.265 156.244 267.425 156.244C269.315 156.244 270.053 154.948 270.233 154.192H271.421C270.971 155.866 269.711 157.252 267.407 157.252C264.599 157.252 263.033 155.2 263.033 152.41C263.033 149.476 264.761 147.586 267.407 147.586C270.053 147.586 271.547 149.44 271.547 151.996ZM264.257 151.618H270.305C270.305 149.98 269.243 148.594 267.353 148.594C265.571 148.594 264.347 149.908 264.257 151.618ZM276.592 147.82V148.846H274.738V154.642C274.738 155.776 274.99 156.046 275.89 156.046C276.178 156.046 276.322 156.028 276.592 156.01V157C276.232 157.054 276.016 157.072 275.728 157.072C274.396 157.072 273.568 156.622 273.568 154.624V148.846H272.218V147.82H273.568V144.76H274.738V147.82H276.592ZM284.567 157.234C282.731 157.234 281.561 156.208 281.561 154.678C281.561 152.698 282.965 152.068 285.341 151.654C286.853 151.384 287.825 151.276 287.825 150.178C287.825 149.242 287.213 148.612 285.737 148.612C283.955 148.612 283.325 149.242 283.235 150.592H281.993C282.083 148.972 283.109 147.586 285.773 147.586C287.465 147.586 288.959 148.306 288.959 150.502V155.092C288.959 155.83 289.067 156.172 289.481 156.172C289.553 156.172 289.625 156.172 289.733 156.154V157C289.535 157.036 289.337 157.072 289.121 157.072C288.347 157.072 287.897 156.766 287.825 155.614H287.789C287.159 156.658 286.061 157.234 284.567 157.234ZM284.711 156.208C286.583 156.208 287.825 155.218 287.825 153.562V151.852C287.555 152.23 286.583 152.446 285.485 152.626C283.703 152.95 282.785 153.4 282.785 154.57C282.785 155.632 283.379 156.208 284.711 156.208ZM295.649 147.604C297.287 147.604 298.655 148.522 298.655 150.556V157H297.485V150.808C297.485 149.638 296.945 148.63 295.361 148.63C293.615 148.63 292.463 149.854 292.463 151.204V157H291.293V147.82H292.463V149.134H292.499C293.021 148.378 294.011 147.604 295.649 147.604ZM307.428 149.368V144.13H308.598V157H307.428V155.506H307.392C306.87 156.406 305.898 157.234 304.296 157.234C302.064 157.234 300.264 155.434 300.264 152.41C300.264 149.404 302.064 147.604 304.296 147.604C305.898 147.604 306.852 148.396 307.392 149.368H307.428ZM304.44 156.208C306.204 156.208 307.428 154.732 307.428 152.41C307.428 150.106 306.204 148.63 304.44 148.63C302.532 148.63 301.488 150.358 301.488 152.41C301.488 154.48 302.532 156.208 304.44 156.208ZM319.04 157H317.744V145.282H313.37V144.13H323.432V145.282H319.04V157ZM323.761 160.222C323.473 160.222 323.257 160.204 322.879 160.15V159.142C323.149 159.178 323.293 159.196 323.581 159.196C324.445 159.196 325.147 158.638 325.651 156.946L321.943 147.82H323.239L326.227 155.47H326.263L329.107 147.82H330.367L326.695 157.27C325.795 159.556 324.985 160.222 323.761 160.222ZM335.919 147.586C338.169 147.586 339.969 149.386 339.969 152.41C339.969 155.416 338.169 157.216 335.919 157.216C334.317 157.216 333.363 156.424 332.823 155.452H332.787V160.186H331.617V147.82H332.787V149.296H332.823C333.363 148.414 334.317 147.586 335.919 147.586ZM335.793 156.19C337.701 156.19 338.745 154.462 338.745 152.41C338.745 150.34 337.701 148.612 335.793 148.612C334.029 148.612 332.787 150.088 332.787 152.41C332.787 154.714 334.029 156.19 335.793 156.19ZM349.665 151.996C349.665 152.248 349.665 152.5 349.647 152.644H342.375C342.393 154.498 343.383 156.244 345.543 156.244C347.433 156.244 348.171 154.948 348.351 154.192H349.539C349.089 155.866 347.829 157.252 345.525 157.252C342.717 157.252 341.151 155.2 341.151 152.41C341.151 149.476 342.879 147.586 345.525 147.586C348.171 147.586 349.665 149.44 349.665 151.996ZM342.375 151.618H348.423C348.423 149.98 347.361 148.594 345.471 148.594C343.689 148.594 342.465 149.908 342.375 151.618ZM353.955 145.048C353.073 145.048 352.857 145.318 352.857 146.452V147.82H354.675V148.846H352.857V157H351.687V148.846H350.391V147.82H351.687V146.47C351.687 144.472 352.479 144.022 353.793 144.022C354.045 144.022 354.261 144.04 354.675 144.094V145.084C354.351 145.066 354.207 145.048 353.955 145.048ZM358.184 157.234C356.348 157.234 355.178 156.208 355.178 154.678C355.178 152.698 356.582 152.068 358.958 151.654C360.47 151.384 361.442 151.276 361.442 150.178C361.442 149.242 360.83 148.612 359.354 148.612C357.572 148.612 356.942 149.242 356.852 150.592H355.61C355.7 148.972 356.726 147.586 359.39 147.586C361.082 147.586 362.576 148.306 362.576 150.502V155.092C362.576 155.83 362.684 156.172 363.098 156.172C363.17 156.172 363.242 156.172 363.35 156.154V157C363.152 157.036 362.954 157.072 362.738 157.072C361.964 157.072 361.514 156.766 361.442 155.614H361.406C360.776 156.658 359.678 157.234 358.184 157.234ZM358.328 156.208C360.2 156.208 361.442 155.218 361.442 153.562V151.852C361.172 152.23 360.2 152.446 359.102 152.626C357.32 152.95 356.402 153.4 356.402 154.57C356.402 155.632 356.996 156.208 358.328 156.208ZM368.71 157.234C366.082 157.234 364.318 155.29 364.318 152.41C364.318 149.548 366.082 147.604 368.71 147.604C370.942 147.604 372.454 149.098 372.652 151.042H371.428C371.356 150.016 370.618 148.63 368.71 148.63C366.46 148.63 365.542 150.538 365.542 152.41C365.542 154.3 366.46 156.226 368.71 156.226C370.636 156.226 371.356 154.84 371.428 153.724H372.652C372.526 155.704 370.942 157.234 368.71 157.234ZM382.254 151.996C382.254 152.248 382.254 152.5 382.236 152.644H374.964C374.982 154.498 375.972 156.244 378.132 156.244C380.022 156.244 380.76 154.948 380.94 154.192H382.128C381.678 155.866 380.418 157.252 378.114 157.252C375.306 157.252 373.74 155.2 373.74 152.41C373.74 149.476 375.468 147.586 378.114 147.586C380.76 147.586 382.254 149.44 382.254 151.996ZM374.964 151.618H381.012C381.012 149.98 379.95 148.594 378.06 148.594C376.278 148.594 375.054 149.908 374.964 151.618ZM384.91 157H383.398V155.488H384.91V157ZM396.106 157H390.634V144.13H395.764C398.302 144.13 399.832 145.354 399.832 147.37C399.832 148.9 398.95 149.692 397.798 150.088V150.124C399.238 150.394 400.354 151.456 400.354 153.31C400.354 155.74 398.662 157 396.106 157ZM391.948 149.656H396.016C397.798 149.656 398.464 148.774 398.464 147.496C398.464 146.182 397.672 145.282 396.016 145.282H391.948V149.656ZM391.948 155.848H396.16C398.194 155.848 398.986 154.804 398.986 153.31C398.986 151.798 398.014 150.808 396.484 150.808H391.948V155.848ZM408.173 153.616V147.82H409.343V157H408.173V155.704H408.137C407.615 156.46 406.625 157.216 404.987 157.216C403.349 157.216 401.981 156.298 401.981 154.264V147.82H403.151V154.012C403.151 155.182 403.691 156.19 405.275 156.19C407.021 156.19 408.173 154.966 408.173 153.616ZM415.038 147.82V148.846H413.184V154.642C413.184 155.776 413.436 156.046 414.336 156.046C414.624 156.046 414.768 156.028 415.038 156.01V157C414.678 157.054 414.462 157.072 414.174 157.072C412.842 157.072 412.014 156.622 412.014 154.624V148.846H410.664V147.82H412.014V144.76H413.184V147.82H415.038ZM421.662 157H420.492V144.13H421.662V157ZM427.72 157.252C424.966 157.252 423.31 155.272 423.31 152.428C423.31 149.566 424.966 147.586 427.72 147.586C430.474 147.586 432.13 149.566 432.13 152.428C432.13 155.272 430.474 157.252 427.72 157.252ZM427.72 156.226C429.862 156.226 430.906 154.534 430.906 152.428C430.906 150.304 429.862 148.612 427.72 148.612C425.578 148.612 424.534 150.304 424.534 152.428C424.534 154.534 425.578 156.226 427.72 156.226ZM440.495 149.26V147.82H441.665V156.424C441.665 159.034 440.045 160.294 437.525 160.294C435.041 160.294 433.727 159.088 433.583 157.486H434.807C434.987 158.476 435.761 159.268 437.543 159.268C439.397 159.268 440.495 158.458 440.495 156.586V154.876H440.459C439.919 155.83 438.911 156.568 437.363 156.568C435.167 156.568 433.331 155.128 433.331 152.068C433.331 149.044 435.167 147.604 437.363 147.604C438.911 147.604 439.919 148.342 440.459 149.26H440.495ZM437.525 155.542C439.217 155.542 440.495 154.426 440.495 152.068C440.495 149.746 439.217 148.63 437.525 148.63C435.635 148.63 434.555 149.998 434.555 152.068C434.555 154.174 435.635 155.542 437.525 155.542ZM447.707 157.252C444.953 157.252 443.297 155.272 443.297 152.428C443.297 149.566 444.953 147.586 447.707 147.586C450.461 147.586 452.117 149.566 452.117 152.428C452.117 155.272 450.461 157.252 447.707 157.252ZM447.707 156.226C449.849 156.226 450.893 154.534 450.893 152.428C450.893 150.304 449.849 148.612 447.707 148.612C445.565 148.612 444.521 150.304 444.521 152.428C444.521 154.534 445.565 156.226 447.707 156.226ZM459.037 145.984H457.525V144.472H459.037V145.984ZM458.875 157H457.705V147.82H458.875V157ZM464.411 157.234C461.837 157.234 460.433 155.83 460.379 153.994H461.603C461.675 155.254 462.503 156.208 464.429 156.208C466.175 156.208 466.769 155.398 466.769 154.498C466.769 153.148 465.401 153.004 464.123 152.698C462.431 152.266 460.721 151.852 460.721 150.07C460.721 148.576 461.909 147.604 463.979 147.604C466.373 147.604 467.489 148.882 467.651 150.394H466.427C466.265 149.584 465.779 148.63 463.997 148.63C462.683 148.63 461.945 149.134 461.945 149.998C461.945 151.15 463.187 151.312 464.573 151.654C466.301 152.068 468.011 152.554 468.011 154.462C468.011 156.136 466.679 157.234 464.411 157.234ZM477.811 147.604C479.449 147.604 480.817 148.522 480.817 150.556V157H479.647V150.808C479.647 149.638 479.107 148.63 477.523 148.63C475.777 148.63 474.625 149.854 474.625 151.204V157H473.455V147.82H474.625V149.134H474.661C475.183 148.378 476.173 147.604 477.811 147.604ZM486.818 157.252C484.064 157.252 482.408 155.272 482.408 152.428C482.408 149.566 484.064 147.586 486.818 147.586C489.572 147.586 491.228 149.566 491.228 152.428C491.228 155.272 489.572 157.252 486.818 157.252ZM486.818 156.226C488.96 156.226 490.004 154.534 490.004 152.428C490.004 150.304 488.96 148.612 486.818 148.612C484.676 148.612 483.632 150.304 483.632 152.428C483.632 154.534 484.676 156.226 486.818 156.226ZM496.249 147.82V148.846H494.395V154.642C494.395 155.776 494.647 156.046 495.547 156.046C495.835 156.046 495.979 156.028 496.249 156.01V157C495.889 157.054 495.673 157.072 495.385 157.072C494.053 157.072 493.225 156.622 493.225 154.624V148.846H491.875V147.82H493.225V144.76H494.395V147.82H496.249ZM505.087 157.234C502.513 157.234 501.109 155.83 501.055 153.994H502.279C502.351 155.254 503.179 156.208 505.105 156.208C506.851 156.208 507.445 155.398 507.445 154.498C507.445 153.148 506.077 153.004 504.799 152.698C503.107 152.266 501.397 151.852 501.397 150.07C501.397 148.576 502.585 147.604 504.655 147.604C507.049 147.604 508.165 148.882 508.327 150.394H507.103C506.941 149.584 506.455 148.63 504.673 148.63C503.359 148.63 502.621 149.134 502.621 149.998C502.621 151.15 503.863 151.312 505.249 151.654C506.977 152.068 508.687 152.554 508.687 154.462C508.687 156.136 507.355 157.234 505.087 157.234ZM513.633 147.82V148.846H511.779V154.642C511.779 155.776 512.031 156.046 512.931 156.046C513.219 156.046 513.363 156.028 513.633 156.01V157C513.273 157.054 513.057 157.072 512.769 157.072C511.437 157.072 510.609 156.622 510.609 154.624V148.846H509.259V147.82H510.609V144.76H511.779V147.82H513.633ZM516.482 145.984H514.97V144.472H516.482V145.984ZM516.32 157H515.15V147.82H516.32V157ZM522.361 157.234C519.733 157.234 517.969 155.29 517.969 152.41C517.969 149.548 519.733 147.604 522.361 147.604C524.593 147.604 526.105 149.098 526.303 151.042H525.079C525.007 150.016 524.269 148.63 522.361 148.63C520.111 148.63 519.193 150.538 519.193 152.41C519.193 154.3 520.111 156.226 522.361 156.226C524.287 156.226 525.007 154.84 525.079 153.724H526.303C526.177 155.704 524.593 157.234 522.361 157.234ZM535.491 157H534.105L530.631 151.924L529.047 153.4V157H527.877V144.13H529.047V152.14L533.601 147.82H535.041L531.423 151.186L535.491 157ZM543.003 157H541.707L538.791 147.82H540.087L542.373 155.668H542.409L544.551 147.82H545.865L548.007 155.668H548.043L550.347 147.82H551.607L548.673 157H547.359L545.199 149.242H545.163L543.003 157ZM554.24 145.984H552.728V144.472H554.24V145.984ZM554.078 157H552.908V147.82H554.078V157ZM559.758 147.82V148.846H557.904V154.642C557.904 155.776 558.156 156.046 559.056 156.046C559.344 156.046 559.488 156.028 559.758 156.01V157C559.398 157.054 559.182 157.072 558.894 157.072C557.562 157.072 556.734 156.622 556.734 154.624V148.846H555.384V147.82H556.734V144.76H557.904V147.82H559.758ZM565.631 147.604C567.269 147.604 568.637 148.522 568.637 150.556V157H567.467V150.808C567.467 149.638 566.927 148.63 565.343 148.63C563.597 148.63 562.445 149.854 562.445 151.204V157H561.275V144.13H562.445V149.134H562.481C563.003 148.378 563.993 147.604 565.631 147.604ZM584.21 147.604C585.956 147.604 586.91 148.648 586.91 150.556V157H585.74V150.808C585.74 149.656 585.47 148.63 583.958 148.63C582.338 148.63 581.384 149.872 581.384 151.204V157H580.214V150.808C580.214 149.656 579.944 148.63 578.414 148.63C576.812 148.63 575.84 149.872 575.84 151.204V157H574.67V147.82H575.84V149.116H575.876C576.362 148.378 577.226 147.604 578.666 147.604C579.962 147.604 580.79 148.198 581.132 149.296H581.168C581.762 148.378 582.752 147.604 584.21 147.604ZM589.665 160.222C589.377 160.222 589.161 160.204 588.783 160.15V159.142C589.053 159.178 589.197 159.196 589.485 159.196C590.349 159.196 591.051 158.638 591.555 156.946L587.847 147.82H589.143L592.131 155.47H592.167L595.011 147.82H596.271L592.599 157.27C591.699 159.556 590.889 160.222 589.665 160.222ZM604.925 157.234C602.297 157.234 600.533 155.29 600.533 152.41C600.533 149.548 602.297 147.604 604.925 147.604C607.157 147.604 608.669 149.098 608.867 151.042H607.643C607.571 150.016 606.833 148.63 604.925 148.63C602.675 148.63 601.757 150.538 601.757 152.41C601.757 154.3 602.675 156.226 604.925 156.226C606.851 156.226 607.571 154.84 607.643 153.724H608.867C608.741 155.704 607.157 157.234 604.925 157.234ZM614.347 157.252C611.593 157.252 609.937 155.272 609.937 152.428C609.937 149.566 611.593 147.586 614.347 147.586C617.101 147.586 618.757 149.566 618.757 152.428C618.757 155.272 617.101 157.252 614.347 157.252ZM614.347 156.226C616.489 156.226 617.533 154.534 617.533 152.428C617.533 150.304 616.489 148.612 614.347 148.612C612.205 148.612 611.161 150.304 611.161 152.428C611.161 154.534 612.205 156.226 614.347 156.226ZM621.578 157H620.408V144.13H621.578V157ZM627.636 157.252C624.882 157.252 623.226 155.272 623.226 152.428C623.226 149.566 624.882 147.586 627.636 147.586C630.39 147.586 632.046 149.566 632.046 152.428C632.046 155.272 630.39 157.252 627.636 157.252ZM627.636 156.226C629.778 156.226 630.822 154.534 630.822 152.428C630.822 150.304 629.778 148.612 627.636 148.612C625.494 148.612 624.45 150.304 624.45 152.428C624.45 154.534 625.494 156.226 627.636 156.226ZM637.513 147.604C637.837 147.604 638.089 147.622 638.305 147.658V148.81C638.125 148.774 637.927 148.756 637.747 148.756C636.091 148.756 634.867 150.088 634.867 151.87V157H633.697V147.82H634.867V149.692H634.903C635.371 148.486 636.217 147.604 637.513 147.604ZM647.368 147.586C649.618 147.586 651.418 149.386 651.418 152.41C651.418 155.416 649.618 157.216 647.368 157.216C645.766 157.216 644.812 156.424 644.272 155.452H644.236V160.186H643.066V147.82H644.236V149.296H644.272C644.812 148.414 645.766 147.586 647.368 147.586ZM647.242 156.19C649.15 156.19 650.194 154.462 650.194 152.41C650.194 150.34 649.15 148.612 647.242 148.612C645.478 148.612 644.236 150.088 644.236 152.41C644.236 154.714 645.478 156.19 647.242 156.19ZM655.606 157.234C653.77 157.234 652.6 156.208 652.6 154.678C652.6 152.698 654.004 152.068 656.38 151.654C657.892 151.384 658.864 151.276 658.864 150.178C658.864 149.242 658.252 148.612 656.776 148.612C654.994 148.612 654.364 149.242 654.274 150.592H653.032C653.122 148.972 654.148 147.586 656.812 147.586C658.504 147.586 659.998 148.306 659.998 150.502V155.092C659.998 155.83 660.106 156.172 660.52 156.172C660.592 156.172 660.664 156.172 660.772 156.154V157C660.574 157.036 660.376 157.072 660.16 157.072C659.386 157.072 658.936 156.766 658.864 155.614H658.828C658.198 156.658 657.1 157.234 655.606 157.234ZM655.75 156.208C657.622 156.208 658.864 155.218 658.864 153.562V151.852C658.594 152.23 657.622 152.446 656.524 152.626C654.742 152.95 653.824 153.4 653.824 154.57C653.824 155.632 654.418 156.208 655.75 156.208ZM663.502 157H662.332V144.13H663.502V157ZM666.824 157H665.654V144.13H666.824V157ZM677.004 151.996C677.004 152.248 677.004 152.5 676.986 152.644H669.714C669.732 154.498 670.722 156.244 672.882 156.244C674.772 156.244 675.51 154.948 675.69 154.192H676.878C676.428 155.866 675.168 157.252 672.864 157.252C670.056 157.252 668.49 155.2 668.49 152.41C668.49 149.476 670.218 147.586 672.864 147.586C675.51 147.586 677.004 149.44 677.004 151.996ZM669.714 151.618H675.762C675.762 149.98 674.7 148.594 672.81 148.594C671.028 148.594 669.804 149.908 669.714 151.618ZM682.049 147.82V148.846H680.195V154.642C680.195 155.776 680.447 156.046 681.347 156.046C681.635 156.046 681.779 156.028 682.049 156.01V157C681.689 157.054 681.473 157.072 681.185 157.072C679.853 157.072 679.025 156.622 679.025 154.624V148.846H677.675V147.82H679.025V144.76H680.195V147.82H682.049ZM684.88 157H683.368V155.488H684.88V157ZM691.918 157H690.604V144.13H691.918V157ZM702.653 147.604C704.291 147.604 705.659 148.522 705.659 150.556V157H704.489V150.808C704.489 149.638 703.949 148.63 702.365 148.63C700.619 148.63 699.467 149.854 699.467 151.204V157H698.297V147.82H699.467V149.134H699.503C700.025 148.378 701.015 147.604 702.653 147.604ZM715.782 151.996C715.782 152.248 715.782 152.5 715.764 152.644H708.492C708.51 154.498 709.5 156.244 711.66 156.244C713.55 156.244 714.288 154.948 714.468 154.192H715.656C715.206 155.866 713.946 157.252 711.642 157.252C708.834 157.252 707.268 155.2 707.268 152.41C707.268 149.476 708.996 147.586 711.642 147.586C714.288 147.586 715.782 149.44 715.782 151.996ZM708.492 151.618H714.54C714.54 149.98 713.478 148.594 711.588 148.594C709.806 148.594 708.582 149.908 708.492 151.618ZM725.45 151.996C725.45 152.248 725.45 152.5 725.432 152.644H718.16C718.178 154.498 719.168 156.244 721.328 156.244C723.218 156.244 723.956 154.948 724.136 154.192H725.324C724.874 155.866 723.614 157.252 721.31 157.252C718.502 157.252 716.936 155.2 716.936 152.41C716.936 149.476 718.664 147.586 721.31 147.586C723.956 147.586 725.45 149.44 725.45 151.996ZM718.16 151.618H724.208C724.208 149.98 723.146 148.594 721.256 148.594C719.474 148.594 718.25 149.908 718.16 151.618ZM733.768 149.368V144.13H734.938V157H733.768V155.506H733.732C733.21 156.406 732.238 157.234 730.636 157.234C728.404 157.234 726.604 155.434 726.604 152.41C726.604 149.404 728.404 147.604 730.636 147.604C732.238 147.604 733.192 148.396 733.732 149.368H733.768ZM730.78 156.208C732.544 156.208 733.768 154.732 733.768 152.41C733.768 150.106 732.544 148.63 730.78 148.63C728.872 148.63 727.828 150.358 727.828 152.41C727.828 154.48 728.872 156.208 730.78 156.208ZM744.575 147.82V148.846H742.721V154.642C742.721 155.776 742.973 156.046 743.873 156.046C744.161 156.046 744.305 156.028 744.575 156.01V157C744.215 157.054 743.999 157.072 743.711 157.072C742.379 157.072 741.551 156.622 741.551 154.624V148.846H740.201V147.82H741.551V144.76H742.721V147.82H744.575ZM749.787 157.252C747.033 157.252 745.377 155.272 745.377 152.428C745.377 149.566 747.033 147.586 749.787 147.586C752.541 147.586 754.197 149.566 754.197 152.428C754.197 155.272 752.541 157.252 749.787 157.252ZM749.787 156.226C751.929 156.226 752.973 154.534 752.973 152.428C752.973 150.304 751.929 148.612 749.787 148.612C747.645 148.612 746.601 150.304 746.601 152.428C746.601 154.534 747.645 156.226 749.787 156.226ZM763.673 157.234C761.045 157.234 759.281 155.29 759.281 152.41C759.281 149.548 761.045 147.604 763.673 147.604C765.905 147.604 767.417 149.098 767.615 151.042H766.391C766.319 150.016 765.581 148.63 763.673 148.63C761.423 148.63 760.505 150.538 760.505 152.41C760.505 154.3 761.423 156.226 763.673 156.226C765.599 156.226 766.319 154.84 766.391 153.724H767.615C767.489 155.704 765.905 157.234 763.673 157.234ZM773.545 147.604C775.183 147.604 776.551 148.522 776.551 150.556V157H775.381V150.808C775.381 149.638 774.841 148.63 773.257 148.63C771.511 148.63 770.359 149.854 770.359 151.204V157H769.189V144.13H770.359V149.134H770.395C770.917 148.378 771.907 147.604 773.545 147.604ZM781.166 157.234C779.33 157.234 778.16 156.208 778.16 154.678C778.16 152.698 779.564 152.068 781.94 151.654C783.452 151.384 784.424 151.276 784.424 150.178C784.424 149.242 783.812 148.612 782.336 148.612C780.554 148.612 779.924 149.242 779.834 150.592H778.592C778.682 148.972 779.708 147.586 782.372 147.586C784.064 147.586 785.558 148.306 785.558 150.502V155.092C785.558 155.83 785.666 156.172 786.08 156.172C786.152 156.172 786.224 156.172 786.332 156.154V157C786.134 157.036 785.936 157.072 785.72 157.072C784.946 157.072 784.496 156.766 784.424 155.614H784.388C783.758 156.658 782.66 157.234 781.166 157.234ZM781.31 156.208C783.182 156.208 784.424 155.218 784.424 153.562V151.852C784.154 152.23 783.182 152.446 782.084 152.626C780.302 152.95 779.384 153.4 779.384 154.57C779.384 155.632 779.978 156.208 781.31 156.208ZM792.249 147.604C793.887 147.604 795.255 148.522 795.255 150.556V157H794.085V150.808C794.085 149.638 793.545 148.63 791.961 148.63C790.215 148.63 789.062 149.854 789.062 151.204V157H787.893V147.82H789.062V149.134H789.099C789.621 148.378 790.611 147.604 792.249 147.604ZM804.064 149.26V147.82H805.234V156.424C805.234 159.034 803.614 160.294 801.094 160.294C798.61 160.294 797.296 159.088 797.152 157.486H798.376C798.556 158.476 799.33 159.268 801.112 159.268C802.966 159.268 804.064 158.458 804.064 156.586V154.876H804.028C803.488 155.83 802.48 156.568 800.932 156.568C798.736 156.568 796.9 155.128 796.9 152.068C796.9 149.044 798.736 147.604 800.932 147.604C802.48 147.604 803.488 148.342 804.028 149.26H804.064ZM801.094 155.542C802.786 155.542 804.064 154.426 804.064 152.068C804.064 149.746 802.786 148.63 801.094 148.63C799.204 148.63 798.124 149.998 798.124 152.068C798.124 154.174 799.204 155.542 801.094 155.542ZM815.397 151.996C815.397 152.248 815.397 152.5 815.379 152.644H808.107C808.125 154.498 809.115 156.244 811.275 156.244C813.165 156.244 813.903 154.948 814.083 154.192H815.271C814.821 155.866 813.561 157.252 811.257 157.252C808.449 157.252 806.883 155.2 806.883 152.41C806.883 149.476 808.611 147.586 811.257 147.586C813.903 147.586 815.397 149.44 815.397 151.996ZM808.107 151.618H814.155C814.155 149.98 813.093 148.594 811.203 148.594C809.421 148.594 808.197 149.908 808.107 151.618ZM824.863 157.234C822.235 157.234 820.471 155.29 820.471 152.41C820.471 149.548 822.235 147.604 824.863 147.604C827.095 147.604 828.607 149.098 828.805 151.042H827.581C827.509 150.016 826.771 148.63 824.863 148.63C822.613 148.63 821.695 150.538 821.695 152.41C821.695 154.3 822.613 156.226 824.863 156.226C826.789 156.226 827.509 154.84 827.581 153.724H828.805C828.679 155.704 827.095 157.234 824.863 157.234ZM834.285 157.252C831.531 157.252 829.875 155.272 829.875 152.428C829.875 149.566 831.531 147.586 834.285 147.586C837.039 147.586 838.695 149.566 838.695 152.428C838.695 155.272 837.039 157.252 834.285 157.252ZM834.285 156.226C836.427 156.226 837.471 154.534 837.471 152.428C837.471 150.304 836.427 148.612 834.285 148.612C832.143 148.612 831.099 150.304 831.099 152.428C831.099 154.534 832.143 156.226 834.285 156.226ZM841.516 157H840.346V144.13H841.516V157ZM847.574 157.252C844.82 157.252 843.164 155.272 843.164 152.428C843.164 149.566 844.82 147.586 847.574 147.586C850.328 147.586 851.984 149.566 851.984 152.428C851.984 155.272 850.328 157.252 847.574 157.252ZM847.574 156.226C849.716 156.226 850.76 154.534 850.76 152.428C850.76 150.304 849.716 148.612 847.574 148.612C845.432 148.612 844.388 150.304 844.388 152.428C844.388 154.534 845.432 156.226 847.574 156.226ZM857.451 147.604C857.775 147.604 858.027 147.622 858.243 147.658V148.81C858.063 148.774 857.865 148.756 857.685 148.756C856.029 148.756 854.805 150.088 854.805 151.87V157H853.635V147.82H854.805V149.692H854.841C855.309 148.486 856.155 147.604 857.451 147.604ZM862.644 157.234C860.07 157.234 858.666 155.83 858.612 153.994H859.836C859.908 155.254 860.736 156.208 862.662 156.208C864.408 156.208 865.002 155.398 865.002 154.498C865.002 153.148 863.634 153.004 862.356 152.698C860.664 152.266 858.954 151.852 858.954 150.07C858.954 148.576 860.142 147.604 862.212 147.604C864.606 147.604 865.722 148.882 865.884 150.394H864.66C864.498 149.584 864.012 148.63 862.23 148.63C860.916 148.63 860.178 149.134 860.178 149.998C860.178 151.15 861.42 151.312 862.806 151.654C864.534 152.068 866.244 152.554 866.244 154.462C866.244 156.136 864.912 157.234 862.644 157.234ZM867.552 159.178V158.404C868.128 158.188 868.308 157.864 868.29 157H867.552V155.488H869.064V157C869.064 158.026 868.776 158.8 867.552 159.178ZM877.866 157.234C875.292 157.234 873.888 155.83 873.834 153.994H875.058C875.13 155.254 875.958 156.208 877.884 156.208C879.63 156.208 880.224 155.398 880.224 154.498C880.224 153.148 878.856 153.004 877.578 152.698C875.886 152.266 874.176 151.852 874.176 150.07C874.176 148.576 875.364 147.604 877.434 147.604C879.828 147.604 880.944 148.882 881.106 150.394H879.882C879.72 149.584 879.234 148.63 877.452 148.63C876.138 148.63 875.4 149.134 875.4 149.998C875.4 151.15 876.642 151.312 878.028 151.654C879.756 152.068 881.466 152.554 881.466 154.462C881.466 156.136 880.134 157.234 877.866 157.234ZM886.879 157.252C884.125 157.252 882.469 155.272 882.469 152.428C882.469 149.566 884.125 147.586 886.879 147.586C889.633 147.586 891.289 149.566 891.289 152.428C891.289 155.272 889.633 157.252 886.879 157.252ZM886.879 156.226C889.021 156.226 890.065 154.534 890.065 152.428C890.065 150.304 889.021 148.612 886.879 148.612C884.737 148.612 883.693 150.304 883.693 152.428C883.693 154.534 884.737 156.226 886.879 156.226ZM898.479 157H897.165V144.13H898.479V157ZM908.385 147.82V148.846H906.531V154.642C906.531 155.776 906.783 156.046 907.683 156.046C907.971 156.046 908.115 156.028 908.385 156.01V157C908.025 157.054 907.809 157.072 907.521 157.072C906.189 157.072 905.361 156.622 905.361 154.624V148.846H904.011V147.82H905.361V144.76H906.531V147.82H908.385ZM913.718 147.604C914.042 147.604 914.294 147.622 914.51 147.658V148.81C914.33 148.774 914.132 148.756 913.952 148.756C912.296 148.756 911.072 150.088 911.072 151.87V157H909.902V147.82H911.072V149.692H911.108C911.576 148.486 912.422 147.604 913.718 147.604ZM916.566 160.222C916.278 160.222 916.062 160.204 915.684 160.15V159.142C915.954 159.178 916.098 159.196 916.386 159.196C917.25 159.196 917.952 158.638 918.456 156.946L914.748 147.82H916.044L919.032 155.47H919.068L921.912 147.82H923.172L919.5 157.27C918.6 159.556 917.79 160.222 916.566 160.222ZM935.839 157H927.415C927.415 154.696 928.837 152.986 931.087 151.726C933.355 150.43 934.597 149.89 934.597 148C934.597 146.776 934.003 145.48 932.095 145.48C929.935 145.48 929.125 146.992 929.125 148.756H927.775C927.775 146.344 929.179 144.328 932.113 144.328C934.237 144.328 935.965 145.66 935.965 147.982C935.965 150.34 934.111 151.42 932.293 152.446C930.781 153.31 929.215 154.156 928.981 155.812V155.848H935.839V157ZM943.356 157H942.042V144.13H946.992C949.368 144.13 951.15 145.138 951.15 147.838C951.15 150.538 949.368 151.564 946.992 151.564H943.356V157ZM943.356 150.412H947.118C948.864 150.412 949.782 149.602 949.782 147.838C949.782 146.092 948.864 145.282 947.118 145.282H943.356V150.412ZM954.254 157H952.94V144.13H954.542L961.508 155.146H961.544V144.13H962.858V157H961.256L954.29 145.984H954.254V157ZM970.781 157.234C967.001 157.234 964.967 154.408 964.967 150.574C964.967 146.758 967.289 143.896 970.943 143.896C974.021 143.896 975.785 145.516 976.235 147.946H974.885C974.507 146.074 973.013 145.048 970.943 145.048C967.721 145.048 966.335 147.892 966.335 150.574C966.335 153.274 967.451 156.082 970.781 156.082C973.283 156.082 975.137 154.264 975.137 151.564H970.871V150.394H976.451V157H975.551L975.155 154.714H975.119C974.309 156.226 972.977 157.234 970.781 157.234ZM985.887 147.82V148.846H984.033V154.642C984.033 155.776 984.285 156.046 985.185 156.046C985.473 156.046 985.617 156.028 985.887 156.01V157C985.527 157.054 985.311 157.072 985.023 157.072C983.691 157.072 982.863 156.622 982.863 154.624V148.846H981.513V147.82H982.863V144.76H984.033V147.82H985.887ZM991.099 157.252C988.345 157.252 986.689 155.272 986.689 152.428C986.689 149.566 988.345 147.586 991.099 147.586C993.853 147.586 995.509 149.566 995.509 152.428C995.509 155.272 993.853 157.252 991.099 157.252ZM991.099 156.226C993.241 156.226 994.285 154.534 994.285 152.428C994.285 150.304 993.241 148.612 991.099 148.612C988.957 148.612 987.913 150.304 987.913 152.428C987.913 154.534 988.957 156.226 991.099 156.226ZM1006.01 157.234C1002.92 157.234 1000.68 155.632 1000.5 152.734H1001.87C1002.05 154.732 1003.28 156.082 1005.96 156.082C1008.33 156.082 1009.14 154.948 1009.14 153.526C1009.16 151.618 1007.83 151.294 1005.18 150.7C1003.08 150.214 1001.04 149.566 1001.04 147.208C1001.04 145.156 1002.68 143.896 1005.33 143.896C1008.12 143.896 1009.88 145.318 1010.08 147.838H1008.71C1008.5 146.056 1007.51 145.048 1005.33 145.048C1003.44 145.048 1002.41 145.822 1002.41 147.154C1002.41 148.882 1003.94 149.242 1005.83 149.656C1008.48 150.232 1010.51 150.88 1010.51 153.49C1010.51 155.578 1009.07 157.234 1006.01 157.234ZM1016.93 157H1015.57L1010.87 144.13H1012.29L1016.25 155.668H1016.27L1020.19 144.13H1021.56L1016.93 157ZM1027.89 157.234C1024.11 157.234 1022.08 154.408 1022.08 150.574C1022.08 146.758 1024.4 143.896 1028.05 143.896C1031.13 143.896 1032.9 145.516 1033.35 147.946H1032C1031.62 146.074 1030.12 145.048 1028.05 145.048C1024.83 145.048 1023.45 147.892 1023.45 150.574C1023.45 153.274 1024.56 156.082 1027.89 156.082C1030.39 156.082 1032.25 154.264 1032.25 151.564H1027.98V150.394H1033.56V157H1032.66L1032.27 154.714H1032.23C1031.42 156.226 1030.09 157.234 1027.89 157.234ZM1043.36 157.234C1040.73 157.234 1038.97 155.29 1038.97 152.41C1038.97 149.548 1040.73 147.604 1043.36 147.604C1045.59 147.604 1047.1 149.098 1047.3 151.042H1046.08C1046 150.016 1045.27 148.63 1043.36 148.63C1041.11 148.63 1040.19 150.538 1040.19 152.41C1040.19 154.3 1041.11 156.226 1043.36 156.226C1045.28 156.226 1046 154.84 1046.08 153.724H1047.3C1047.17 155.704 1045.59 157.234 1043.36 157.234ZM1052.78 157.252C1050.03 157.252 1048.37 155.272 1048.37 152.428C1048.37 149.566 1050.03 147.586 1052.78 147.586C1055.53 147.586 1057.19 149.566 1057.19 152.428C1057.19 155.272 1055.53 157.252 1052.78 157.252ZM1052.78 156.226C1054.92 156.226 1055.97 154.534 1055.97 152.428C1055.97 150.304 1054.92 148.612 1052.78 148.612C1050.64 148.612 1049.59 150.304 1049.59 152.428C1049.59 154.534 1050.64 156.226 1052.78 156.226ZM1063.2 147.604C1064.84 147.604 1066.2 148.522 1066.2 150.556V157H1065.03V150.808C1065.03 149.638 1064.49 148.63 1062.91 148.63C1061.16 148.63 1060.01 149.854 1060.01 151.204V157H1058.84V147.82H1060.01V149.134H1060.05C1060.57 148.378 1061.56 147.604 1063.2 147.604ZM1071.92 157H1070.59L1067.22 147.82H1068.52L1071.27 155.812H1071.29L1074.03 147.82H1075.29L1071.92 157ZM1084.31 151.996C1084.31 152.248 1084.31 152.5 1084.29 152.644H1077.02C1077.04 154.498 1078.03 156.244 1080.19 156.244C1082.08 156.244 1082.81 154.948 1082.99 154.192H1084.18C1083.73 155.866 1082.47 157.252 1080.17 157.252C1077.36 157.252 1075.79 155.2 1075.79 152.41C1075.79 149.476 1077.52 147.586 1080.17 147.586C1082.81 147.586 1084.31 149.44 1084.31 151.996ZM1077.02 151.618H1083.07C1083.07 149.98 1082 148.594 1080.11 148.594C1078.33 148.594 1077.11 149.908 1077.02 151.618ZM1089.76 147.604C1090.09 147.604 1090.34 147.622 1090.56 147.658V148.81C1090.38 148.774 1090.18 148.756 1090 148.756C1088.34 148.756 1087.12 150.088 1087.12 151.87V157H1085.95V147.82H1087.12V149.692H1087.15C1087.62 148.486 1088.47 147.604 1089.76 147.604ZM1095.33 147.82V148.846H1093.47V154.642C1093.47 155.776 1093.73 156.046 1094.63 156.046C1094.91 156.046 1095.06 156.028 1095.33 156.01V157C1094.97 157.054 1094.75 157.072 1094.46 157.072C1093.13 157.072 1092.3 156.622 1092.3 154.624V148.846H1090.95V147.82H1092.3V144.76H1093.47V147.82H1095.33ZM1104.66 151.996C1104.66 152.248 1104.66 152.5 1104.64 152.644H1097.37C1097.39 154.498 1098.38 156.244 1100.54 156.244C1102.43 156.244 1103.17 154.948 1103.35 154.192H1104.54C1104.09 155.866 1102.83 157.252 1100.52 157.252C1097.71 157.252 1096.15 155.2 1096.15 152.41C1096.15 149.476 1097.88 147.586 1100.52 147.586C1103.17 147.586 1104.66 149.44 1104.66 151.996ZM1097.37 151.618H1103.42C1103.42 149.98 1102.36 148.594 1100.47 148.594C1098.69 148.594 1097.46 149.908 1097.37 151.618ZM1110.12 147.604C1110.44 147.604 1110.69 147.622 1110.91 147.658V148.81C1110.73 148.774 1110.53 148.756 1110.35 148.756C1108.7 148.756 1107.47 150.088 1107.47 151.87V157H1106.3V147.82H1107.47V149.692H1107.51C1107.98 148.486 1108.82 147.604 1110.12 147.604ZM1112.24 157H1110.73V155.488H1112.24V157ZM1227.92 157H1226.62L1223.7 147.82H1225L1227.29 155.668H1227.32L1229.46 147.82H1230.78L1232.92 155.668H1232.96L1235.26 147.82H1236.52L1233.59 157H1232.27L1230.11 149.242H1230.08L1227.92 157ZM1240.08 157.234C1238.24 157.234 1237.07 156.208 1237.07 154.678C1237.07 152.698 1238.48 152.068 1240.85 151.654C1242.36 151.384 1243.34 151.276 1243.34 150.178C1243.34 149.242 1242.72 148.612 1241.25 148.612C1239.47 148.612 1238.84 149.242 1238.75 150.592H1237.5C1237.59 148.972 1238.62 147.586 1241.28 147.586C1242.98 147.586 1244.47 148.306 1244.47 150.502V155.092C1244.47 155.83 1244.58 156.172 1244.99 156.172C1245.06 156.172 1245.14 156.172 1245.24 156.154V157C1245.05 157.036 1244.85 157.072 1244.63 157.072C1243.86 157.072 1243.41 156.766 1243.34 155.614H1243.3C1242.67 156.658 1241.57 157.234 1240.08 157.234ZM1240.22 156.208C1242.09 156.208 1243.34 155.218 1243.34 153.562V151.852C1243.07 152.23 1242.09 152.446 1241 152.626C1239.21 152.95 1238.3 153.4 1238.3 154.57C1238.3 155.632 1238.89 156.208 1240.22 156.208ZM1250.17 157.234C1247.6 157.234 1246.19 155.83 1246.14 153.994H1247.36C1247.44 155.254 1248.26 156.208 1250.19 156.208C1251.94 156.208 1252.53 155.398 1252.53 154.498C1252.53 153.148 1251.16 153.004 1249.88 152.698C1248.19 152.266 1246.48 151.852 1246.48 150.07C1246.48 148.576 1247.67 147.604 1249.74 147.604C1252.13 147.604 1253.25 148.882 1253.41 150.394H1252.19C1252.03 149.584 1251.54 148.63 1249.76 148.63C1248.44 148.63 1247.71 149.134 1247.71 149.998C1247.71 151.15 1248.95 151.312 1250.33 151.654C1252.06 152.068 1253.77 152.554 1253.77 154.462C1253.77 156.136 1252.44 157.234 1250.17 157.234ZM1263.52 147.586C1265.77 147.586 1267.57 149.386 1267.57 152.41C1267.57 155.416 1265.77 157.216 1263.52 157.216C1261.91 157.216 1260.96 156.424 1260.42 155.452H1260.38V160.186H1259.21V147.82H1260.38V149.296H1260.42C1260.96 148.414 1261.91 147.586 1263.52 147.586ZM1263.39 156.19C1265.3 156.19 1266.34 154.462 1266.34 152.41C1266.34 150.34 1265.3 148.612 1263.39 148.612C1261.63 148.612 1260.38 150.088 1260.38 152.41C1260.38 154.714 1261.63 156.19 1263.39 156.19ZM1277.26 151.996C1277.26 152.248 1277.26 152.5 1277.24 152.644H1269.97C1269.99 154.498 1270.98 156.244 1273.14 156.244C1275.03 156.244 1275.77 154.948 1275.95 154.192H1277.14C1276.69 155.866 1275.43 157.252 1273.12 157.252C1270.31 157.252 1268.75 155.2 1268.75 152.41C1268.75 149.476 1270.48 147.586 1273.12 147.586C1275.77 147.586 1277.26 149.44 1277.26 151.996ZM1269.97 151.618H1276.02C1276.02 149.98 1274.96 148.594 1273.07 148.594C1271.29 148.594 1270.06 149.908 1269.97 151.618ZM1282.72 147.604C1283.04 147.604 1283.29 147.622 1283.51 147.658V148.81C1283.33 148.774 1283.13 148.756 1282.95 148.756C1281.3 148.756 1280.07 150.088 1280.07 151.87V157H1278.9V147.82H1280.07V149.692H1280.11C1280.58 148.486 1281.42 147.604 1282.72 147.604ZM1287.58 145.048C1286.7 145.048 1286.48 145.318 1286.48 146.452V147.82H1288.3V148.846H1286.48V157H1285.31V148.846H1284.02V147.82H1285.31V146.47C1285.31 144.472 1286.11 144.022 1287.42 144.022C1287.67 144.022 1287.89 144.04 1288.3 144.094V145.084C1287.98 145.066 1287.83 145.048 1287.58 145.048ZM1297.27 151.996C1297.27 152.248 1297.27 152.5 1297.25 152.644H1289.98C1289.99 154.498 1290.98 156.244 1293.14 156.244C1295.03 156.244 1295.77 154.948 1295.95 154.192H1297.14C1296.69 155.866 1295.43 157.252 1293.13 157.252C1290.32 157.252 1288.75 155.2 1288.75 152.41C1288.75 149.476 1290.48 147.586 1293.13 147.586C1295.77 147.586 1297.27 149.44 1297.27 151.996ZM1289.98 151.618H1296.02C1296.02 149.98 1294.96 148.594 1293.07 148.594C1291.29 148.594 1290.07 149.908 1289.98 151.618ZM1302.79 157.234C1300.17 157.234 1298.4 155.29 1298.4 152.41C1298.4 149.548 1300.17 147.604 1302.79 147.604C1305.03 147.604 1306.54 149.098 1306.74 151.042H1305.51C1305.44 150.016 1304.7 148.63 1302.79 148.63C1300.54 148.63 1299.63 150.538 1299.63 152.41C1299.63 154.3 1300.54 156.226 1302.79 156.226C1304.72 156.226 1305.44 154.84 1305.51 153.724H1306.74C1306.61 155.704 1305.03 157.234 1302.79 157.234ZM1311.79 147.82V148.846H1309.93V154.642C1309.93 155.776 1310.18 156.046 1311.08 156.046C1311.37 156.046 1311.52 156.028 1311.79 156.01V157C1311.43 157.054 1311.21 157.072 1310.92 157.072C1309.59 157.072 1308.76 156.622 1308.76 154.624V148.846H1307.41V147.82H1308.76V144.76H1309.93V147.82H1311.79ZM1320.07 145.048C1319.18 145.048 1318.97 145.318 1318.97 146.452V147.82H1320.79V148.846H1318.97V157H1317.8V148.846H1316.5V147.82H1317.8V146.47C1317.8 144.472 1318.59 144.022 1319.9 144.022C1320.16 144.022 1320.37 144.04 1320.79 144.094V145.084C1320.46 145.066 1320.32 145.048 1320.07 145.048ZM1325.63 157.252C1322.87 157.252 1321.22 155.272 1321.22 152.428C1321.22 149.566 1322.87 147.586 1325.63 147.586C1328.38 147.586 1330.04 149.566 1330.04 152.428C1330.04 155.272 1328.38 157.252 1325.63 157.252ZM1325.63 156.226C1327.77 156.226 1328.81 154.534 1328.81 152.428C1328.81 150.304 1327.77 148.612 1325.63 148.612C1323.49 148.612 1322.44 150.304 1322.44 152.428C1322.44 154.534 1323.49 156.226 1325.63 156.226ZM1335.51 147.604C1335.83 147.604 1336.08 147.622 1336.3 147.658V148.81C1336.12 148.774 1335.92 148.756 1335.74 148.756C1334.08 148.756 1332.86 150.088 1332.86 151.87V157H1331.69V147.82H1332.86V149.692H1332.9C1333.36 148.486 1334.21 147.604 1335.51 147.604ZM1350.6 147.604C1352.34 147.604 1353.3 148.648 1353.3 150.556V157H1352.13V150.808C1352.13 149.656 1351.86 148.63 1350.35 148.63C1348.73 148.63 1347.77 149.872 1347.77 151.204V157H1346.6V150.808C1346.6 149.656 1346.33 148.63 1344.8 148.63C1343.2 148.63 1342.23 149.872 1342.23 151.204V157H1341.06V147.82H1342.23V149.116H1342.26C1342.75 148.378 1343.61 147.604 1345.05 147.604C1346.35 147.604 1347.18 148.198 1347.52 149.296H1347.56C1348.15 148.378 1349.14 147.604 1350.6 147.604ZM1363.41 151.996C1363.41 152.248 1363.41 152.5 1363.39 152.644H1356.12C1356.14 154.498 1357.13 156.244 1359.29 156.244C1361.18 156.244 1361.92 154.948 1362.1 154.192H1363.29C1362.84 155.866 1361.58 157.252 1359.27 157.252C1356.46 157.252 1354.9 155.2 1354.9 152.41C1354.9 149.476 1356.63 147.586 1359.27 147.586C1361.92 147.586 1363.41 149.44 1363.41 151.996ZM1356.12 151.618H1362.17C1362.17 149.98 1361.11 148.594 1359.22 148.594C1357.44 148.594 1356.21 149.908 1356.12 151.618ZM1366.07 157H1364.56V155.488H1366.07V157ZM1373.11 157H1371.79V144.13H1373.11V157ZM66.412 172.984H64.9V171.472H66.412V172.984ZM64.45 187.24C64.144 187.24 63.928 187.222 63.568 187.168V186.178C63.838 186.196 63.982 186.214 64.252 186.214C64.846 186.214 65.08 185.872 65.08 184.792V174.82H66.25V184.882C66.25 186.664 65.422 187.24 64.45 187.24ZM74.5223 180.616V174.82H75.6923V184H74.5223V182.704H74.4863C73.9643 183.46 72.9743 184.216 71.3363 184.216C69.6983 184.216 68.3303 183.298 68.3303 181.264V174.82H69.5003V181.012C69.5003 182.182 70.0403 183.19 71.6243 183.19C73.3703 183.19 74.5223 181.966 74.5223 180.616ZM81.2433 184.234C78.6693 184.234 77.2653 182.83 77.2113 180.994H78.4353C78.5073 182.254 79.3353 183.208 81.2613 183.208C83.0073 183.208 83.6013 182.398 83.6013 181.498C83.6013 180.148 82.2333 180.004 80.9553 179.698C79.2633 179.266 77.5533 178.852 77.5533 177.07C77.5533 175.576 78.7413 174.604 80.8113 174.604C83.2053 174.604 84.3213 175.882 84.4833 177.394H83.2593C83.0973 176.584 82.6113 175.63 80.8293 175.63C79.5153 175.63 78.7773 176.134 78.7773 176.998C78.7773 178.15 80.0193 178.312 81.4053 178.654C83.1333 179.068 84.8433 179.554 84.8433 181.462C84.8433 183.136 83.5113 184.234 81.2433 184.234ZM89.7896 174.82V175.846H87.9356V181.642C87.9356 182.776 88.1876 183.046 89.0876 183.046C89.3756 183.046 89.5196 183.028 89.7896 183.01V184C89.4296 184.054 89.2136 184.072 88.9256 184.072C87.5936 184.072 86.7656 183.622 86.7656 181.624V175.846H85.4156V174.82H86.7656V171.76H87.9356V174.82H89.7896ZM99.6001 174.604C101.238 174.604 102.606 175.522 102.606 177.556V184H101.436V177.808C101.436 176.638 100.896 175.63 99.3121 175.63C97.5661 175.63 96.4141 176.854 96.4141 178.204V184H95.2441V171.13H96.4141V176.134H96.4501C96.9721 175.378 97.9621 174.604 99.6001 174.604ZM107.221 184.234C105.385 184.234 104.215 183.208 104.215 181.678C104.215 179.698 105.619 179.068 107.995 178.654C109.507 178.384 110.479 178.276 110.479 177.178C110.479 176.242 109.867 175.612 108.391 175.612C106.609 175.612 105.979 176.242 105.889 177.592H104.647C104.737 175.972 105.763 174.586 108.427 174.586C110.119 174.586 111.613 175.306 111.613 177.502V182.092C111.613 182.83 111.721 183.172 112.135 183.172C112.207 183.172 112.279 183.172 112.387 183.154V184C112.189 184.036 111.991 184.072 111.775 184.072C111.001 184.072 110.551 183.766 110.479 182.614H110.443C109.813 183.658 108.715 184.234 107.221 184.234ZM107.365 183.208C109.237 183.208 110.479 182.218 110.479 180.562V178.852C110.209 179.23 109.237 179.446 108.139 179.626C106.357 179.95 105.439 180.4 105.439 181.57C105.439 182.632 106.033 183.208 107.365 183.208ZM117.429 184H116.097L112.731 174.82H114.027L116.781 182.812H116.799L119.535 174.82H120.795L117.429 184ZM129.815 178.996C129.815 179.248 129.815 179.5 129.797 179.644H122.525C122.543 181.498 123.533 183.244 125.693 183.244C127.583 183.244 128.321 181.948 128.501 181.192H129.689C129.239 182.866 127.979 184.252 125.675 184.252C122.867 184.252 121.301 182.2 121.301 179.41C121.301 176.476 123.029 174.586 125.675 174.586C128.321 174.586 129.815 176.44 129.815 178.996ZM122.525 178.618H128.573C128.573 176.98 127.511 175.594 125.621 175.594C123.839 175.594 122.615 176.908 122.525 178.618ZM139.281 184.234C136.653 184.234 134.889 182.29 134.889 179.41C134.889 176.548 136.653 174.604 139.281 174.604C141.513 174.604 143.025 176.098 143.223 178.042H141.999C141.927 177.016 141.189 175.63 139.281 175.63C137.031 175.63 136.113 177.538 136.113 179.41C136.113 181.3 137.031 183.226 139.281 183.226C141.207 183.226 141.927 181.84 141.999 180.724H143.223C143.097 182.704 141.513 184.234 139.281 184.234ZM149.153 174.604C150.791 174.604 152.159 175.522 152.159 177.556V184H150.989V177.808C150.989 176.638 150.449 175.63 148.865 175.63C147.119 175.63 145.967 176.854 145.967 178.204V184H144.797V171.13H145.967V176.134H146.003C146.525 175.378 147.515 174.604 149.153 174.604ZM156.774 184.234C154.938 184.234 153.768 183.208 153.768 181.678C153.768 179.698 155.172 179.068 157.548 178.654C159.06 178.384 160.032 178.276 160.032 177.178C160.032 176.242 159.42 175.612 157.944 175.612C156.162 175.612 155.532 176.242 155.442 177.592H154.2C154.29 175.972 155.316 174.586 157.98 174.586C159.672 174.586 161.166 175.306 161.166 177.502V182.092C161.166 182.83 161.274 183.172 161.688 183.172C161.76 183.172 161.832 183.172 161.94 183.154V184C161.742 184.036 161.544 184.072 161.328 184.072C160.554 184.072 160.104 183.766 160.032 182.614H159.996C159.366 183.658 158.268 184.234 156.774 184.234ZM156.918 183.208C158.79 183.208 160.032 182.218 160.032 180.562V178.852C159.762 179.23 158.79 179.446 157.692 179.626C155.91 179.95 154.992 180.4 154.992 181.57C154.992 182.632 155.586 183.208 156.918 183.208ZM167.856 174.604C169.494 174.604 170.862 175.522 170.862 177.556V184H169.692V177.808C169.692 176.638 169.152 175.63 167.568 175.63C165.822 175.63 164.67 176.854 164.67 178.204V184H163.5V174.82H164.67V176.134H164.706C165.228 175.378 166.218 174.604 167.856 174.604ZM179.671 176.26V174.82H180.841V183.424C180.841 186.034 179.221 187.294 176.701 187.294C174.217 187.294 172.903 186.088 172.759 184.486H173.983C174.163 185.476 174.937 186.268 176.719 186.268C178.573 186.268 179.671 185.458 179.671 183.586V181.876H179.635C179.095 182.83 178.087 183.568 176.539 183.568C174.343 183.568 172.507 182.128 172.507 179.068C172.507 176.044 174.343 174.604 176.539 174.604C178.087 174.604 179.095 175.342 179.635 176.26H179.671ZM176.701 182.542C178.393 182.542 179.671 181.426 179.671 179.068C179.671 176.746 178.393 175.63 176.701 175.63C174.811 175.63 173.731 176.998 173.731 179.068C173.731 181.174 174.811 182.542 176.701 182.542ZM191.004 178.996C191.004 179.248 191.004 179.5 190.986 179.644H183.714C183.732 181.498 184.722 183.244 186.882 183.244C188.772 183.244 189.51 181.948 189.69 181.192H190.878C190.428 182.866 189.168 184.252 186.864 184.252C184.056 184.252 182.49 182.2 182.49 179.41C182.49 176.476 184.218 174.586 186.864 174.586C189.51 174.586 191.004 176.44 191.004 178.996ZM183.714 178.618H189.762C189.762 176.98 188.7 175.594 186.81 175.594C185.028 175.594 183.804 176.908 183.714 178.618ZM200.11 174.82V175.846H198.256V181.642C198.256 182.776 198.508 183.046 199.408 183.046C199.696 183.046 199.84 183.028 200.11 183.01V184C199.75 184.054 199.534 184.072 199.246 184.072C197.914 184.072 197.086 183.622 197.086 181.624V175.846H195.736V174.82H197.086V171.76H198.256V174.82H200.11ZM205.983 174.604C207.621 174.604 208.989 175.522 208.989 177.556V184H207.819V177.808C207.819 176.638 207.279 175.63 205.695 175.63C203.949 175.63 202.797 176.854 202.797 178.204V184H201.627V171.13H202.797V176.134H202.833C203.355 175.378 204.345 174.604 205.983 174.604ZM219.112 178.996C219.112 179.248 219.112 179.5 219.094 179.644H211.822C211.84 181.498 212.83 183.244 214.99 183.244C216.88 183.244 217.618 181.948 217.798 181.192H218.986C218.536 182.866 217.276 184.252 214.972 184.252C212.164 184.252 210.598 182.2 210.598 179.41C210.598 176.476 212.326 174.586 214.972 174.586C217.618 174.586 219.112 176.44 219.112 178.996ZM211.822 178.618H217.87C217.87 176.98 216.808 175.594 214.918 175.594C213.136 175.594 211.912 176.908 211.822 178.618ZM228.577 184.234C225.949 184.234 224.185 182.29 224.185 179.41C224.185 176.548 225.949 174.604 228.577 174.604C230.809 174.604 232.321 176.098 232.519 178.042H231.295C231.223 177.016 230.485 175.63 228.577 175.63C226.327 175.63 225.409 177.538 225.409 179.41C225.409 181.3 226.327 183.226 228.577 183.226C230.503 183.226 231.223 181.84 231.295 180.724H232.519C232.393 182.704 230.809 184.234 228.577 184.234ZM238 184.252C235.246 184.252 233.59 182.272 233.59 179.428C233.59 176.566 235.246 174.586 238 174.586C240.754 174.586 242.41 176.566 242.41 179.428C242.41 182.272 240.754 184.252 238 184.252ZM238 183.226C240.142 183.226 241.186 181.534 241.186 179.428C241.186 177.304 240.142 175.612 238 175.612C235.858 175.612 234.814 177.304 234.814 179.428C234.814 181.534 235.858 183.226 238 183.226ZM245.23 184H244.06V171.13H245.23V184ZM251.289 184.252C248.535 184.252 246.879 182.272 246.879 179.428C246.879 176.566 248.535 174.586 251.289 174.586C254.043 174.586 255.699 176.566 255.699 179.428C255.699 182.272 254.043 184.252 251.289 184.252ZM251.289 183.226C253.431 183.226 254.475 181.534 254.475 179.428C254.475 177.304 253.431 175.612 251.289 175.612C249.147 175.612 248.103 177.304 248.103 179.428C248.103 181.534 249.147 183.226 251.289 183.226ZM261.166 174.604C261.49 174.604 261.742 174.622 261.958 174.658V175.81C261.778 175.774 261.58 175.756 261.4 175.756C259.744 175.756 258.52 177.088 258.52 178.87V184H257.35V174.82H258.52V176.692H258.556C259.024 175.486 259.87 174.604 261.166 174.604ZM269.239 184.234C267.403 184.234 266.233 183.208 266.233 181.678C266.233 179.698 267.637 179.068 270.013 178.654C271.525 178.384 272.497 178.276 272.497 177.178C272.497 176.242 271.885 175.612 270.409 175.612C268.627 175.612 267.997 176.242 267.907 177.592H266.665C266.755 175.972 267.781 174.586 270.445 174.586C272.137 174.586 273.631 175.306 273.631 177.502V182.092C273.631 182.83 273.739 183.172 274.153 183.172C274.225 183.172 274.297 183.172 274.405 183.154V184C274.207 184.036 274.009 184.072 273.793 184.072C273.019 184.072 272.569 183.766 272.497 182.614H272.461C271.831 183.658 270.733 184.234 269.239 184.234ZM269.383 183.208C271.255 183.208 272.497 182.218 272.497 180.562V178.852C272.227 179.23 271.255 179.446 270.157 179.626C268.375 179.95 267.457 180.4 267.457 181.57C267.457 182.632 268.051 183.208 269.383 183.208ZM280.321 174.604C281.959 174.604 283.327 175.522 283.327 177.556V184H282.157V177.808C282.157 176.638 281.617 175.63 280.033 175.63C278.287 175.63 277.135 176.854 277.135 178.204V184H275.965V174.82H277.135V176.134H277.171C277.693 175.378 278.683 174.604 280.321 174.604ZM292.1 176.368V171.13H293.27V184H292.1V182.506H292.064C291.542 183.406 290.57 184.234 288.968 184.234C286.736 184.234 284.936 182.434 284.936 179.41C284.936 176.404 286.736 174.604 288.968 174.604C290.57 174.604 291.524 175.396 292.064 176.368H292.1ZM289.112 183.208C290.876 183.208 292.1 181.732 292.1 179.41C292.1 177.106 290.876 175.63 289.112 175.63C287.204 175.63 286.16 177.358 286.16 179.41C286.16 181.48 287.204 183.208 289.112 183.208ZM301.899 184.234C300.063 184.234 298.893 183.208 298.893 181.678C298.893 179.698 300.297 179.068 302.673 178.654C304.185 178.384 305.157 178.276 305.157 177.178C305.157 176.242 304.545 175.612 303.069 175.612C301.287 175.612 300.657 176.242 300.567 177.592H299.325C299.415 175.972 300.441 174.586 303.105 174.586C304.797 174.586 306.291 175.306 306.291 177.502V182.092C306.291 182.83 306.399 183.172 306.813 183.172C306.885 183.172 306.957 183.172 307.065 183.154V184C306.867 184.036 306.669 184.072 306.453 184.072C305.679 184.072 305.229 183.766 305.157 182.614H305.121C304.491 183.658 303.393 184.234 301.899 184.234ZM302.043 183.208C303.915 183.208 305.157 182.218 305.157 180.562V178.852C304.887 179.23 303.915 179.446 302.817 179.626C301.035 179.95 300.117 180.4 300.117 181.57C300.117 182.632 300.711 183.208 302.043 183.208ZM315.215 176.368V171.13H316.385V184H315.215V182.506H315.179C314.657 183.406 313.685 184.234 312.083 184.234C309.851 184.234 308.051 182.434 308.051 179.41C308.051 176.404 309.851 174.604 312.083 174.604C313.685 174.604 314.639 175.396 315.179 176.368H315.215ZM312.227 183.208C313.991 183.208 315.215 181.732 315.215 179.41C315.215 177.106 313.991 175.63 312.227 175.63C310.319 175.63 309.275 177.358 309.275 179.41C309.275 181.48 310.319 183.208 312.227 183.208ZM319.889 172.984H318.377V171.472H319.889V172.984ZM317.927 187.24C317.621 187.24 317.405 187.222 317.045 187.168V186.178C317.315 186.196 317.459 186.214 317.729 186.214C318.323 186.214 318.557 185.872 318.557 184.792V174.82H319.727V184.882C319.727 186.664 318.899 187.24 317.927 187.24ZM327.999 180.616V174.82H329.169V184H327.999V182.704H327.963C327.441 183.46 326.451 184.216 324.813 184.216C323.175 184.216 321.807 183.298 321.807 181.264V174.82H322.977V181.012C322.977 182.182 323.517 183.19 325.101 183.19C326.847 183.19 327.999 181.966 327.999 180.616ZM334.72 184.234C332.146 184.234 330.742 182.83 330.688 180.994H331.912C331.984 182.254 332.812 183.208 334.738 183.208C336.484 183.208 337.078 182.398 337.078 181.498C337.078 180.148 335.71 180.004 334.432 179.698C332.74 179.266 331.03 178.852 331.03 177.07C331.03 175.576 332.218 174.604 334.288 174.604C336.682 174.604 337.798 175.882 337.96 177.394H336.736C336.574 176.584 336.088 175.63 334.306 175.63C332.992 175.63 332.254 176.134 332.254 176.998C332.254 178.15 333.496 178.312 334.882 178.654C336.61 179.068 338.32 179.554 338.32 181.462C338.32 183.136 336.988 184.234 334.72 184.234ZM343.266 174.82V175.846H341.412V181.642C341.412 182.776 341.664 183.046 342.564 183.046C342.852 183.046 342.996 183.028 343.266 183.01V184C342.906 184.054 342.69 184.072 342.402 184.072C341.07 184.072 340.242 183.622 340.242 181.624V175.846H338.892V174.82H340.242V171.76H341.412V174.82H343.266ZM356.749 178.996C356.749 179.248 356.749 179.5 356.731 179.644H349.459C349.477 181.498 350.467 183.244 352.627 183.244C354.517 183.244 355.255 181.948 355.435 181.192H356.623C356.173 182.866 354.913 184.252 352.609 184.252C349.801 184.252 348.235 182.2 348.235 179.41C348.235 176.476 349.963 174.586 352.609 174.586C355.255 174.586 356.749 176.44 356.749 178.996ZM349.459 178.618H355.507C355.507 176.98 354.445 175.594 352.555 175.594C350.773 175.594 349.549 176.908 349.459 178.618ZM365.067 176.368V171.13H366.237V184H365.067V182.506H365.031C364.509 183.406 363.537 184.234 361.935 184.234C359.703 184.234 357.903 182.434 357.903 179.41C357.903 176.404 359.703 174.604 361.935 174.604C363.537 174.604 364.491 175.396 365.031 176.368H365.067ZM362.079 183.208C363.843 183.208 365.067 181.732 365.067 179.41C365.067 177.106 363.843 175.63 362.079 175.63C360.171 175.63 359.127 177.358 359.127 179.41C359.127 181.48 360.171 183.208 362.079 183.208ZM375.122 176.26V174.82H376.292V183.424C376.292 186.034 374.672 187.294 372.152 187.294C369.668 187.294 368.354 186.088 368.21 184.486H369.434C369.614 185.476 370.388 186.268 372.17 186.268C374.024 186.268 375.122 185.458 375.122 183.586V181.876H375.086C374.546 182.83 373.538 183.568 371.99 183.568C369.794 183.568 367.958 182.128 367.958 179.068C367.958 176.044 369.794 174.604 371.99 174.604C373.538 174.604 374.546 175.342 375.086 176.26H375.122ZM372.152 182.542C373.844 182.542 375.122 181.426 375.122 179.068C375.122 176.746 373.844 175.63 372.152 175.63C370.262 175.63 369.182 176.998 369.182 179.068C369.182 181.174 370.262 182.542 372.152 182.542ZM386.456 178.996C386.456 179.248 386.456 179.5 386.438 179.644H379.166C379.184 181.498 380.174 183.244 382.334 183.244C384.224 183.244 384.962 181.948 385.142 181.192H386.33C385.88 182.866 384.62 184.252 382.316 184.252C379.508 184.252 377.942 182.2 377.942 179.41C377.942 176.476 379.67 174.586 382.316 174.586C384.962 174.586 386.456 176.44 386.456 178.996ZM379.166 178.618H385.214C385.214 176.98 384.152 175.594 382.262 175.594C380.48 175.594 379.256 176.908 379.166 178.618ZM391.48 184.234C388.906 184.234 387.502 182.83 387.448 180.994H388.672C388.744 182.254 389.572 183.208 391.498 183.208C393.244 183.208 393.838 182.398 393.838 181.498C393.838 180.148 392.47 180.004 391.192 179.698C389.5 179.266 387.79 178.852 387.79 177.07C387.79 175.576 388.978 174.604 391.048 174.604C393.442 174.604 394.558 175.882 394.72 177.394H393.496C393.334 176.584 392.848 175.63 391.066 175.63C389.752 175.63 389.014 176.134 389.014 176.998C389.014 178.15 390.256 178.312 391.642 178.654C393.37 179.068 395.08 179.554 395.08 181.462C395.08 183.136 393.748 184.234 391.48 184.234ZM404.051 174.82V175.846H402.197V181.642C402.197 182.776 402.449 183.046 403.349 183.046C403.637 183.046 403.781 183.028 404.051 183.01V184C403.691 184.054 403.475 184.072 403.187 184.072C401.855 184.072 401.027 183.622 401.027 181.624V175.846H399.677V174.82H401.027V171.76H402.197V174.82H404.051ZM409.263 184.252C406.509 184.252 404.853 182.272 404.853 179.428C404.853 176.566 406.509 174.586 409.263 174.586C412.017 174.586 413.673 176.566 413.673 179.428C413.673 182.272 412.017 184.252 409.263 184.252ZM409.263 183.226C411.405 183.226 412.449 181.534 412.449 179.428C412.449 177.304 411.405 175.612 409.263 175.612C407.121 175.612 406.077 177.304 406.077 179.428C406.077 181.534 407.121 183.226 409.263 183.226ZM422.646 184.234C420.072 184.234 418.668 182.83 418.614 180.994H419.838C419.91 182.254 420.738 183.208 422.664 183.208C424.41 183.208 425.004 182.398 425.004 181.498C425.004 180.148 423.636 180.004 422.358 179.698C420.666 179.266 418.956 178.852 418.956 177.07C418.956 175.576 420.144 174.604 422.214 174.604C424.608 174.604 425.724 175.882 425.886 177.394H424.662C424.5 176.584 424.014 175.63 422.232 175.63C420.918 175.63 420.18 176.134 420.18 176.998C420.18 178.15 421.422 178.312 422.808 178.654C424.536 179.068 426.246 179.554 426.246 181.462C426.246 183.136 424.914 184.234 422.646 184.234ZM437.292 174.604C439.038 174.604 439.992 175.648 439.992 177.556V184H438.822V177.808C438.822 176.656 438.552 175.63 437.04 175.63C435.42 175.63 434.466 176.872 434.466 178.204V184H433.296V177.808C433.296 176.656 433.026 175.63 431.496 175.63C429.894 175.63 428.922 176.872 428.922 178.204V184H427.752V174.82H428.922V176.116H428.958C429.444 175.378 430.308 174.604 431.748 174.604C433.044 174.604 433.872 175.198 434.214 176.296H434.25C434.844 175.378 435.834 174.604 437.292 174.604ZM445.984 184.252C443.23 184.252 441.574 182.272 441.574 179.428C441.574 176.566 443.23 174.586 445.984 174.586C448.738 174.586 450.394 176.566 450.394 179.428C450.394 182.272 448.738 184.252 445.984 184.252ZM445.984 183.226C448.126 183.226 449.17 181.534 449.17 179.428C449.17 177.304 448.126 175.612 445.984 175.612C443.842 175.612 442.798 177.304 442.798 179.428C442.798 181.534 443.842 183.226 445.984 183.226ZM455.951 184.252C453.197 184.252 451.541 182.272 451.541 179.428C451.541 176.566 453.197 174.586 455.951 174.586C458.705 174.586 460.361 176.566 460.361 179.428C460.361 182.272 458.705 184.252 455.951 184.252ZM455.951 183.226C458.093 183.226 459.137 181.534 459.137 179.428C459.137 177.304 458.093 175.612 455.951 175.612C453.809 175.612 452.765 177.304 452.765 179.428C452.765 181.534 453.809 183.226 455.951 183.226ZM465.381 174.82V175.846H463.527V181.642C463.527 182.776 463.779 183.046 464.679 183.046C464.967 183.046 465.111 183.028 465.381 183.01V184C465.021 184.054 464.805 184.072 464.517 184.072C463.185 184.072 462.357 183.622 462.357 181.624V175.846H461.007V174.82H462.357V171.76H463.527V174.82H465.381ZM471.254 174.604C472.892 174.604 474.26 175.522 474.26 177.556V184H473.09V177.808C473.09 176.638 472.55 175.63 470.966 175.63C469.22 175.63 468.068 176.854 468.068 178.204V184H466.898V171.13H468.068V176.134H468.104C468.626 175.378 469.616 174.604 471.254 174.604ZM483.821 174.82V175.846H481.967V181.642C481.967 182.776 482.219 183.046 483.119 183.046C483.407 183.046 483.551 183.028 483.821 183.01V184C483.461 184.054 483.245 184.072 482.957 184.072C481.625 184.072 480.797 183.622 480.797 181.624V175.846H479.447V174.82H480.797V171.76H481.967V174.82H483.821ZM489.694 174.604C491.332 174.604 492.7 175.522 492.7 177.556V184H491.53V177.808C491.53 176.638 490.99 175.63 489.406 175.63C487.66 175.63 486.508 176.854 486.508 178.204V184H485.338V171.13H486.508V176.134H486.544C487.066 175.378 488.056 174.604 489.694 174.604ZM502.823 178.996C502.823 179.248 502.823 179.5 502.805 179.644H495.533C495.551 181.498 496.541 183.244 498.701 183.244C500.591 183.244 501.329 181.948 501.509 181.192H502.697C502.247 182.866 500.987 184.252 498.683 184.252C495.875 184.252 494.309 182.2 494.309 179.41C494.309 176.476 496.037 174.586 498.683 174.586C501.329 174.586 502.823 176.44 502.823 178.996ZM495.533 178.618H501.581C501.581 176.98 500.519 175.594 498.629 175.594C496.847 175.594 495.623 176.908 495.533 178.618ZM509.57 184H508.4V171.13H509.57V184ZM515.629 184.252C512.875 184.252 511.219 182.272 511.219 179.428C511.219 176.566 512.875 174.586 515.629 174.586C518.383 174.586 520.039 176.566 520.039 179.428C520.039 182.272 518.383 184.252 515.629 184.252ZM515.629 183.226C517.771 183.226 518.815 181.534 518.815 179.428C518.815 177.304 517.771 175.612 515.629 175.612C513.487 175.612 512.443 177.304 512.443 179.428C512.443 181.534 513.487 183.226 515.629 183.226ZM528.403 176.26V174.82H529.573V183.424C529.573 186.034 527.953 187.294 525.433 187.294C522.949 187.294 521.635 186.088 521.491 184.486H522.715C522.895 185.476 523.669 186.268 525.451 186.268C527.305 186.268 528.403 185.458 528.403 183.586V181.876H528.367C527.827 182.83 526.819 183.568 525.271 183.568C523.075 183.568 521.239 182.128 521.239 179.068C521.239 176.044 523.075 174.604 525.271 174.604C526.819 174.604 527.827 175.342 528.367 176.26H528.403ZM525.433 182.542C527.125 182.542 528.403 181.426 528.403 179.068C528.403 176.746 527.125 175.63 525.433 175.63C523.543 175.63 522.463 176.998 522.463 179.068C522.463 181.174 523.543 182.542 525.433 182.542ZM535.615 184.252C532.861 184.252 531.205 182.272 531.205 179.428C531.205 176.566 532.861 174.586 535.615 174.586C538.369 174.586 540.025 176.566 540.025 179.428C540.025 182.272 538.369 184.252 535.615 184.252ZM535.615 183.226C537.757 183.226 538.801 181.534 538.801 179.428C538.801 177.304 537.757 175.612 535.615 175.612C533.473 175.612 532.429 177.304 532.429 179.428C532.429 181.534 533.473 183.226 535.615 183.226ZM542.656 184H541.144V182.488H542.656V184ZM547.961 184H546.611L551.417 171.13H552.893L557.735 184H556.331L555.035 180.436H549.257L547.961 184ZM552.137 172.372L549.689 179.266H554.621L552.173 172.372H552.137ZM563.311 174.604C564.949 174.604 566.317 175.522 566.317 177.556V184H565.147V177.808C565.147 176.638 564.607 175.63 563.023 175.63C561.277 175.63 560.125 176.854 560.125 178.204V184H558.955V174.82H560.125V176.134H560.161C560.683 175.378 561.673 174.604 563.311 174.604ZM575.09 176.368V171.13H576.26V184H575.09V182.506H575.054C574.532 183.406 573.56 184.234 571.958 184.234C569.726 184.234 567.926 182.434 567.926 179.41C567.926 176.404 569.726 174.604 571.958 174.604C573.56 174.604 574.514 175.396 575.054 176.368H575.09ZM572.102 183.208C573.866 183.208 575.09 181.732 575.09 179.41C575.09 177.106 573.866 175.63 572.102 175.63C570.194 175.63 569.15 177.358 569.15 179.41C569.15 181.48 570.194 183.208 572.102 183.208ZM583.971 184H582.657V171.13H583.971V184ZM593.734 184.234C591.16 184.234 589.756 182.83 589.702 180.994H590.926C590.998 182.254 591.826 183.208 593.752 183.208C595.498 183.208 596.092 182.398 596.092 181.498C596.092 180.148 594.724 180.004 593.446 179.698C591.754 179.266 590.044 178.852 590.044 177.07C590.044 175.576 591.232 174.604 593.302 174.604C595.696 174.604 596.812 175.882 596.974 177.394H595.75C595.588 176.584 595.102 175.63 593.32 175.63C592.006 175.63 591.268 176.134 591.268 176.998C591.268 178.15 592.51 178.312 593.896 178.654C595.624 179.068 597.334 179.554 597.334 181.462C597.334 183.136 596.002 184.234 593.734 184.234ZM604.96 180.616V174.82H606.13V184H604.96V182.704H604.924C604.402 183.46 603.412 184.216 601.774 184.216C600.136 184.216 598.768 183.298 598.768 181.264V174.82H599.938V181.012C599.938 182.182 600.478 183.19 602.062 183.19C603.808 183.19 604.96 181.966 604.96 180.616ZM612.185 184.234C609.557 184.234 607.793 182.29 607.793 179.41C607.793 176.548 609.557 174.604 612.185 174.604C614.417 174.604 615.929 176.098 616.127 178.042H614.903C614.831 177.016 614.093 175.63 612.185 175.63C609.935 175.63 609.017 177.538 609.017 179.41C609.017 181.3 609.935 183.226 612.185 183.226C614.111 183.226 614.831 181.84 614.903 180.724H616.127C616.001 182.704 614.417 184.234 612.185 184.234ZM621.589 184.234C618.961 184.234 617.197 182.29 617.197 179.41C617.197 176.548 618.961 174.604 621.589 174.604C623.821 174.604 625.333 176.098 625.531 178.042H624.307C624.235 177.016 623.497 175.63 621.589 175.63C619.339 175.63 618.421 177.538 618.421 179.41C618.421 181.3 619.339 183.226 621.589 183.226C623.515 183.226 624.235 181.84 624.307 180.724H625.531C625.405 182.704 623.821 184.234 621.589 184.234ZM635.133 178.996C635.133 179.248 635.133 179.5 635.115 179.644H627.843C627.861 181.498 628.851 183.244 631.011 183.244C632.901 183.244 633.639 181.948 633.819 181.192H635.007C634.557 182.866 633.297 184.252 630.993 184.252C628.185 184.252 626.619 182.2 626.619 179.41C626.619 176.476 628.347 174.586 630.993 174.586C633.639 174.586 635.133 176.44 635.133 178.996ZM627.843 178.618H633.891C633.891 176.98 632.829 175.594 630.939 175.594C629.157 175.594 627.933 176.908 627.843 178.618ZM640.157 184.234C637.583 184.234 636.179 182.83 636.125 180.994H637.349C637.421 182.254 638.249 183.208 640.175 183.208C641.921 183.208 642.515 182.398 642.515 181.498C642.515 180.148 641.147 180.004 639.869 179.698C638.177 179.266 636.467 178.852 636.467 177.07C636.467 175.576 637.655 174.604 639.725 174.604C642.119 174.604 643.235 175.882 643.397 177.394H642.173C642.011 176.584 641.525 175.63 639.743 175.63C638.429 175.63 637.691 176.134 637.691 176.998C637.691 178.15 638.933 178.312 640.319 178.654C642.047 179.068 643.757 179.554 643.757 181.462C643.757 183.136 642.425 184.234 640.157 184.234ZM648.648 184.234C646.074 184.234 644.67 182.83 644.616 180.994H645.84C645.912 182.254 646.74 183.208 648.666 183.208C650.412 183.208 651.006 182.398 651.006 181.498C651.006 180.148 649.638 180.004 648.36 179.698C646.668 179.266 644.958 178.852 644.958 177.07C644.958 175.576 646.146 174.604 648.216 174.604C650.61 174.604 651.726 175.882 651.888 177.394H650.664C650.502 176.584 650.016 175.63 648.234 175.63C646.92 175.63 646.182 176.134 646.182 176.998C646.182 178.15 647.424 178.312 648.81 178.654C650.538 179.068 652.248 179.554 652.248 181.462C652.248 183.136 650.916 184.234 648.648 184.234ZM656.474 172.048C655.592 172.048 655.376 172.318 655.376 173.452V174.82H657.194V175.846H655.376V184H654.206V175.846H652.91V174.82H654.206V173.47C654.206 171.472 654.998 171.022 656.312 171.022C656.564 171.022 656.78 171.04 657.194 171.094V172.084C656.87 172.066 656.726 172.048 656.474 172.048ZM664.479 180.616V174.82H665.649V184H664.479V182.704H664.443C663.921 183.46 662.931 184.216 661.293 184.216C659.655 184.216 658.287 183.298 658.287 181.264V174.82H659.457V181.012C659.457 182.182 659.997 183.19 661.581 183.19C663.327 183.19 664.479 181.966 664.479 180.616ZM668.986 184H667.816V171.13H668.986V184ZM672.309 184H671.139V171.13H672.309V184ZM675.271 187.222C674.983 187.222 674.767 187.204 674.389 187.15V186.142C674.659 186.178 674.803 186.196 675.091 186.196C675.955 186.196 676.657 185.638 677.161 183.946L673.453 174.82H674.749L677.737 182.47H677.773L680.617 174.82H681.877L678.205 184.27C677.305 186.556 676.495 187.222 675.271 187.222ZM690.531 184.234C687.903 184.234 686.139 182.29 686.139 179.41C686.139 176.548 687.903 174.604 690.531 174.604C692.763 174.604 694.275 176.098 694.473 178.042H693.249C693.177 177.016 692.439 175.63 690.531 175.63C688.281 175.63 687.363 177.538 687.363 179.41C687.363 181.3 688.281 183.226 690.531 183.226C692.457 183.226 693.177 181.84 693.249 180.724H694.473C694.347 182.704 692.763 184.234 690.531 184.234ZM699.953 184.252C697.199 184.252 695.543 182.272 695.543 179.428C695.543 176.566 697.199 174.586 699.953 174.586C702.707 174.586 704.363 176.566 704.363 179.428C704.363 182.272 702.707 184.252 699.953 184.252ZM699.953 183.226C702.095 183.226 703.139 181.534 703.139 179.428C703.139 177.304 702.095 175.612 699.953 175.612C697.811 175.612 696.767 177.304 696.767 179.428C696.767 181.534 697.811 183.226 699.953 183.226ZM715.554 174.604C717.3 174.604 718.254 175.648 718.254 177.556V184H717.084V177.808C717.084 176.656 716.814 175.63 715.302 175.63C713.682 175.63 712.728 176.872 712.728 178.204V184H711.558V177.808C711.558 176.656 711.288 175.63 709.758 175.63C708.156 175.63 707.184 176.872 707.184 178.204V184H706.014V174.82H707.184V176.116H707.22C707.706 175.378 708.57 174.604 710.01 174.604C711.306 174.604 712.134 175.198 712.476 176.296H712.512C713.106 175.378 714.096 174.604 715.554 174.604ZM724.642 174.586C726.892 174.586 728.692 176.386 728.692 179.41C728.692 182.416 726.892 184.216 724.642 184.216C723.04 184.216 722.086 183.424 721.546 182.452H721.51V187.186H720.34V174.82H721.51V176.296H721.546C722.086 175.414 723.04 174.586 724.642 174.586ZM724.516 183.19C726.424 183.19 727.468 181.462 727.468 179.41C727.468 177.34 726.424 175.612 724.516 175.612C722.752 175.612 721.51 177.088 721.51 179.41C721.51 181.714 722.752 183.19 724.516 183.19ZM731.529 184H730.359V171.13H731.529V184ZM741.71 178.996C741.71 179.248 741.71 179.5 741.692 179.644H734.42C734.438 181.498 735.428 183.244 737.588 183.244C739.478 183.244 740.216 181.948 740.396 181.192H741.584C741.134 182.866 739.874 184.252 737.57 184.252C734.762 184.252 733.196 182.2 733.196 179.41C733.196 176.476 734.924 174.586 737.57 174.586C740.216 174.586 741.71 176.44 741.71 178.996ZM734.42 178.618H740.468C740.468 176.98 739.406 175.594 737.516 175.594C735.734 175.594 734.51 176.908 734.42 178.618ZM746.754 174.82V175.846H744.9V181.642C744.9 182.776 745.152 183.046 746.052 183.046C746.34 183.046 746.484 183.028 746.754 183.01V184C746.394 184.054 746.178 184.072 745.89 184.072C744.558 184.072 743.73 183.622 743.73 181.624V175.846H742.38V174.82H743.73V171.76H744.9V174.82H746.754ZM756.088 178.996C756.088 179.248 756.088 179.5 756.07 179.644H748.798C748.816 181.498 749.806 183.244 751.966 183.244C753.856 183.244 754.594 181.948 754.774 181.192H755.962C755.512 182.866 754.252 184.252 751.948 184.252C749.14 184.252 747.574 182.2 747.574 179.41C747.574 176.476 749.302 174.586 751.948 174.586C754.594 174.586 756.088 176.44 756.088 178.996ZM748.798 178.618H754.846C754.846 176.98 753.784 175.594 751.894 175.594C750.112 175.594 748.888 176.908 748.798 178.618ZM765.194 174.82V175.846H763.34V181.642C763.34 182.776 763.592 183.046 764.492 183.046C764.78 183.046 764.924 183.028 765.194 183.01V184C764.834 184.054 764.618 184.072 764.33 184.072C762.998 184.072 762.17 183.622 762.17 181.624V175.846H760.82V174.82H762.17V171.76H763.34V174.82H765.194ZM771.067 174.604C772.705 174.604 774.073 175.522 774.073 177.556V184H772.903V177.808C772.903 176.638 772.363 175.63 770.779 175.63C769.033 175.63 767.881 176.854 767.881 178.204V184H766.711V171.13H767.881V176.134H767.917C768.439 175.378 769.429 174.604 771.067 174.604ZM784.196 178.996C784.196 179.248 784.196 179.5 784.178 179.644H776.906C776.924 181.498 777.914 183.244 780.074 183.244C781.964 183.244 782.702 181.948 782.882 181.192H784.07C783.62 182.866 782.36 184.252 780.056 184.252C777.248 184.252 775.682 182.2 775.682 179.41C775.682 176.476 777.41 174.586 780.056 174.586C782.702 174.586 784.196 176.44 784.196 178.996ZM776.906 178.618H782.954C782.954 176.98 781.892 175.594 780.002 175.594C778.22 175.594 776.996 176.908 776.906 178.618ZM797.675 184H789.251C789.251 181.696 790.673 179.986 792.923 178.726C795.191 177.43 796.433 176.89 796.433 175C796.433 173.776 795.839 172.48 793.931 172.48C791.771 172.48 790.961 173.992 790.961 175.756H789.611C789.611 173.344 791.015 171.328 793.949 171.328C796.073 171.328 797.801 172.66 797.801 174.982C797.801 177.34 795.947 178.42 794.129 179.446C792.617 180.31 791.051 181.156 790.817 182.812V182.848H797.675V184ZM804.008 174.604C805.646 174.604 807.014 175.522 807.014 177.556V184H805.844V177.808C805.844 176.638 805.304 175.63 803.72 175.63C801.974 175.63 800.822 176.854 800.822 178.204V184H799.652V174.82H800.822V176.134H800.858C801.38 175.378 802.37 174.604 804.008 174.604ZM815.787 176.368V171.13H816.957V184H815.787V182.506H815.751C815.229 183.406 814.257 184.234 812.655 184.234C810.423 184.234 808.623 182.434 808.623 179.41C808.623 176.404 810.423 174.604 812.655 174.604C814.257 174.604 815.211 175.396 815.751 176.368H815.787ZM812.799 183.208C814.563 183.208 815.787 181.732 815.787 179.41C815.787 177.106 814.563 175.63 812.799 175.63C810.891 175.63 809.847 177.358 809.847 179.41C809.847 181.48 810.891 183.208 812.799 183.208ZM827.368 174.586C829.618 174.586 831.418 176.386 831.418 179.41C831.418 182.416 829.618 184.216 827.368 184.216C825.766 184.216 824.812 183.424 824.272 182.452H824.236V187.186H823.066V174.82H824.236V176.296H824.272C824.812 175.414 825.766 174.586 827.368 174.586ZM827.242 183.19C829.15 183.19 830.194 181.462 830.194 179.41C830.194 177.34 829.15 175.612 827.242 175.612C825.478 175.612 824.236 177.088 824.236 179.41C824.236 181.714 825.478 183.19 827.242 183.19ZM836.902 174.604C837.226 174.604 837.478 174.622 837.694 174.658V175.81C837.514 175.774 837.316 175.756 837.136 175.756C835.48 175.756 834.256 177.088 834.256 178.87V184H833.086V174.82H834.256V176.692H834.292C834.76 175.486 835.606 174.604 836.902 174.604ZM842.336 184.252C839.582 184.252 837.926 182.272 837.926 179.428C837.926 176.566 839.582 174.586 842.336 174.586C845.09 174.586 846.746 176.566 846.746 179.428C846.746 182.272 845.09 184.252 842.336 184.252ZM842.336 183.226C844.478 183.226 845.522 181.534 845.522 179.428C845.522 177.304 844.478 175.612 842.336 175.612C840.194 175.612 839.15 177.304 839.15 179.428C839.15 181.534 840.194 183.226 842.336 183.226ZM852.698 174.586C854.948 174.586 856.748 176.386 856.748 179.41C856.748 182.416 854.948 184.216 852.698 184.216C851.096 184.216 850.142 183.424 849.602 182.434H849.566V184H848.396V171.13H849.566V176.296H849.602C850.142 175.414 851.096 174.586 852.698 174.586ZM852.572 183.19C854.48 183.19 855.524 181.462 855.524 179.41C855.524 177.34 854.48 175.594 852.572 175.594C850.808 175.594 849.566 177.088 849.566 179.41C849.566 181.714 850.808 183.19 852.572 183.19ZM859.586 184H858.416V171.13H859.586V184ZM869.766 178.996C869.766 179.248 869.766 179.5 869.748 179.644H862.476C862.494 181.498 863.484 183.244 865.644 183.244C867.534 183.244 868.272 181.948 868.452 181.192H869.64C869.19 182.866 867.93 184.252 865.626 184.252C862.818 184.252 861.252 182.2 861.252 179.41C861.252 176.476 862.98 174.586 865.626 174.586C868.272 174.586 869.766 176.44 869.766 178.996ZM862.476 178.618H868.524C868.524 176.98 867.462 175.594 865.572 175.594C863.79 175.594 862.566 176.908 862.476 178.618ZM880.946 174.604C882.692 174.604 883.646 175.648 883.646 177.556V184H882.476V177.808C882.476 176.656 882.206 175.63 880.694 175.63C879.074 175.63 878.12 176.872 878.12 178.204V184H876.95V177.808C876.95 176.656 876.68 175.63 875.15 175.63C873.548 175.63 872.576 176.872 872.576 178.204V184H871.406V174.82H872.576V176.116H872.612C873.098 175.378 873.962 174.604 875.402 174.604C876.698 174.604 877.526 175.198 877.868 176.296H877.904C878.498 175.378 879.488 174.604 880.946 174.604ZM891.002 172.984H889.49V171.472H891.002V172.984ZM890.84 184H889.67V174.82H890.84V184ZM897.348 174.604C898.986 174.604 900.354 175.522 900.354 177.556V184H899.184V177.808C899.184 176.638 898.644 175.63 897.06 175.63C895.314 175.63 894.162 176.854 894.162 178.204V184H892.992V174.82H894.162V176.134H894.198C894.72 175.378 895.71 174.604 897.348 174.604ZM915.927 174.604C917.673 174.604 918.627 175.648 918.627 177.556V184H917.457V177.808C917.457 176.656 917.187 175.63 915.675 175.63C914.055 175.63 913.101 176.872 913.101 178.204V184H911.931V177.808C911.931 176.656 911.661 175.63 910.131 175.63C908.529 175.63 907.557 176.872 907.557 178.204V184H906.387V174.82H907.557V176.116H907.593C908.079 175.378 908.943 174.604 910.383 174.604C911.679 174.604 912.507 175.198 912.849 176.296H912.885C913.479 175.378 914.469 174.604 915.927 174.604ZM921.382 187.222C921.094 187.222 920.878 187.204 920.5 187.15V186.142C920.77 186.178 920.914 186.196 921.202 186.196C922.066 186.196 922.768 185.638 923.272 183.946L919.564 174.82H920.86L923.848 182.47H923.884L926.728 174.82H927.988L924.316 184.27C923.416 186.556 922.606 187.222 921.382 187.222ZM937.056 174.586C939.306 174.586 941.106 176.386 941.106 179.41C941.106 182.416 939.306 184.216 937.056 184.216C935.454 184.216 934.5 183.424 933.96 182.452H933.924V187.186H932.754V174.82H933.924V176.296H933.96C934.5 175.414 935.454 174.586 937.056 174.586ZM936.93 183.19C938.838 183.19 939.882 181.462 939.882 179.41C939.882 177.34 938.838 175.612 936.93 175.612C935.166 175.612 933.924 177.088 933.924 179.41C933.924 181.714 935.166 183.19 936.93 183.19ZM946.589 174.604C946.913 174.604 947.165 174.622 947.381 174.658V175.81C947.201 175.774 947.003 175.756 946.823 175.756C945.167 175.756 943.943 177.088 943.943 178.87V184H942.773V174.82H943.943V176.692H943.979C944.447 175.486 945.293 174.604 946.589 174.604ZM952.023 184.252C949.269 184.252 947.613 182.272 947.613 179.428C947.613 176.566 949.269 174.586 952.023 174.586C954.777 174.586 956.433 176.566 956.433 179.428C956.433 182.272 954.777 184.252 952.023 184.252ZM952.023 183.226C954.165 183.226 955.209 181.534 955.209 179.428C955.209 177.304 954.165 175.612 952.023 175.612C949.881 175.612 948.837 177.304 948.837 179.428C948.837 181.534 949.881 183.226 952.023 183.226ZM959.416 172.984H957.904V171.472H959.416V172.984ZM957.454 187.24C957.148 187.24 956.932 187.222 956.572 187.168V186.178C956.842 186.196 956.986 186.214 957.256 186.214C957.85 186.214 958.084 185.872 958.084 184.792V174.82H959.254V184.882C959.254 186.664 958.426 187.24 957.454 187.24ZM969.434 178.996C969.434 179.248 969.434 179.5 969.416 179.644H962.144C962.162 181.498 963.152 183.244 965.312 183.244C967.202 183.244 967.94 181.948 968.12 181.192H969.308C968.858 182.866 967.598 184.252 965.294 184.252C962.486 184.252 960.92 182.2 960.92 179.41C960.92 176.476 962.648 174.586 965.294 174.586C967.94 174.586 969.434 176.44 969.434 178.996ZM962.144 178.618H968.192C968.192 176.98 967.13 175.594 965.24 175.594C963.458 175.594 962.234 176.908 962.144 178.618ZM974.962 184.234C972.334 184.234 970.57 182.29 970.57 179.41C970.57 176.548 972.334 174.604 974.962 174.604C977.194 174.604 978.706 176.098 978.904 178.042H977.68C977.608 177.016 976.87 175.63 974.962 175.63C972.712 175.63 971.794 177.538 971.794 179.41C971.794 181.3 972.712 183.226 974.962 183.226C976.888 183.226 977.608 181.84 977.68 180.724H978.904C978.778 182.704 977.194 184.234 974.962 184.234ZM983.954 174.82V175.846H982.1V181.642C982.1 182.776 982.352 183.046 983.252 183.046C983.54 183.046 983.684 183.028 983.954 183.01V184C983.594 184.054 983.378 184.072 983.09 184.072C981.758 184.072 980.93 183.622 980.93 181.624V175.846H979.58V174.82H980.93V171.76H982.1V174.82H983.954ZM986.785 184H985.273V182.488H986.785V184Z" fill="#5A5A5A"/>
<path d="M1123.26 157.252C1119.6 157.252 1117.24 154.444 1117.24 150.574C1117.24 146.686 1119.62 143.878 1123.27 143.878C1126.5 143.878 1128.49 145.93 1128.8 148.504H1126.73C1126.5 147.244 1125.7 145.588 1123.24 145.588C1120.39 145.588 1119.31 148 1119.31 150.556C1119.31 153.13 1120.39 155.542 1123.24 155.542C1125.72 155.542 1126.6 153.886 1126.73 152.32H1128.8C1128.51 155.182 1126.5 157.252 1123.26 157.252ZM1134.36 157.27C1131.5 157.27 1129.77 155.29 1129.77 152.41C1129.77 149.548 1131.5 147.532 1134.38 147.532C1137.23 147.532 1138.95 149.53 1138.95 152.392C1138.95 155.272 1137.23 157.27 1134.36 157.27ZM1134.38 155.812C1136.25 155.812 1137.12 154.318 1137.12 152.41C1137.12 150.484 1136.25 149.008 1134.38 149.008C1132.47 149.008 1131.61 150.484 1131.61 152.41C1131.61 154.318 1132.47 155.812 1134.38 155.812ZM1145.28 147.55C1146.97 147.55 1148.34 148.522 1148.34 150.628V157H1146.57V151.114C1146.57 149.89 1146.03 149.062 1144.7 149.062C1143.19 149.062 1142.22 149.98 1142.22 151.366V157H1140.45V147.82H1142.22V148.972H1142.25C1142.74 148.27 1143.69 147.55 1145.28 147.55ZM1154.44 157H1152.46L1149.19 147.82H1151.08L1153.49 155.182H1153.51L1155.88 147.82H1157.72L1154.44 157ZM1166.97 152.212C1166.97 152.464 1166.97 152.734 1166.95 152.878H1159.89C1159.93 154.408 1160.83 155.83 1162.65 155.83C1164.27 155.83 1164.9 154.786 1165.06 154.174H1166.86C1166.37 155.938 1165.02 157.27 1162.61 157.27C1159.69 157.27 1158.07 155.2 1158.07 152.392C1158.07 149.512 1159.8 147.532 1162.61 147.532C1165.4 147.532 1166.97 149.368 1166.97 152.212ZM1159.89 151.492H1165.13C1165.13 150.052 1164.12 148.972 1162.56 148.972C1161.08 148.972 1160 149.98 1159.89 151.492ZM1172.72 147.604C1173.05 147.604 1173.3 147.622 1173.57 147.658V149.35C1173.35 149.314 1173.19 149.296 1172.97 149.296C1171.37 149.296 1170.22 150.502 1170.22 152.248V157H1168.46V147.82H1170.22V149.566H1170.26C1170.74 148.414 1171.48 147.604 1172.72 147.604ZM1178.1 155.65C1178.4 155.65 1178.55 155.632 1178.85 155.578V157C1178.4 157.09 1178.12 157.108 1177.74 157.108C1176.23 157.108 1175.31 156.532 1175.31 154.408V149.278H1173.98V147.82H1175.31V144.868H1177.07V147.82H1178.84V149.278H1177.07V154.462C1177.07 155.434 1177.34 155.65 1178.1 155.65ZM1182.19 146.182H1180.2V144.274H1182.19V146.182ZM1182.07 157H1180.3V147.82H1182.07V157ZM1188.15 157.27C1185.29 157.27 1183.56 155.29 1183.56 152.41C1183.56 149.548 1185.29 147.532 1188.17 147.532C1191.01 147.532 1192.74 149.53 1192.74 152.392C1192.74 155.272 1191.01 157.27 1188.15 157.27ZM1188.17 155.812C1190.04 155.812 1190.91 154.318 1190.91 152.41C1190.91 150.484 1190.04 149.008 1188.17 149.008C1186.26 149.008 1185.4 150.484 1185.4 152.41C1185.4 154.318 1186.26 155.812 1188.17 155.812ZM1195.78 157H1193.82V155.038H1195.78V157ZM1201.37 157.27C1198.63 157.27 1196.85 155.29 1196.85 152.41C1196.85 149.53 1198.63 147.55 1201.35 147.55C1203.71 147.55 1205.28 149.08 1205.49 151.15H1203.67C1203.58 150.196 1203.04 149.008 1201.37 149.008C1199.41 149.008 1198.69 150.682 1198.69 152.41C1198.69 154.138 1199.41 155.794 1201.37 155.794C1203.06 155.794 1203.58 154.642 1203.67 153.598H1205.49C1205.37 155.704 1203.73 157.27 1201.37 157.27ZM1211 157.27C1208.14 157.27 1206.41 155.29 1206.41 152.41C1206.41 149.548 1208.14 147.532 1211.02 147.532C1213.87 147.532 1215.59 149.53 1215.59 152.392C1215.59 155.272 1213.87 157.27 1211 157.27ZM1211.02 155.812C1212.89 155.812 1213.76 154.318 1213.76 152.41C1213.76 150.484 1212.89 149.008 1211.02 149.008C1209.11 149.008 1208.25 150.484 1208.25 152.41C1208.25 154.318 1209.11 155.812 1211.02 155.812Z" fill="#3A3A3A"/>
<path d="M1392 0V48H1440" stroke="#E5E5E5"/>
<path d="M1440 239H1392V287" stroke="#E5E5E5"/>
<g clip-path="url(#clip1_2021_140)">
<path fill-rule="evenodd" clip-rule="evenodd" d="M1394.01 268.007C1396.08 257.133 1394.15 241.679 1405.1 240.094C1415.93 238.527 1417.43 254.366 1422.93 263.821C1430.29 276.488 1448.47 287.991 1439.82 299.812C1429.5 313.897 1407.08 315.01 1392.74 305.054C1381.52 297.263 1391.46 281.426 1394.01 268.007Z" fill="#D8B2FF"/>
<path fill-rule="evenodd" clip-rule="evenodd" d="M1395.62 306.199C1401.99 291.713 1416.78 275.073 1405.16 264.333C1393.68 253.723 1379.08 271.162 1364.95 277.849C1346.02 286.807 1315.28 285.635 1315.91 306.569C1316.65 331.513 1342.17 350.986 1367.12 350.87C1386.65 350.779 1387.77 324.076 1395.62 306.199Z" fill="#FF8896"/>
<path d="M1408.35 272.74C1408.82 272.74 1409.25 272.666 1409.63 272.517C1410 272.367 1410.32 272.162 1410.58 271.901C1410.85 271.636 1411.05 271.323 1411.19 270.963C1411.33 270.603 1411.4 270.209 1411.4 269.782L1411.4 265.327L1412.29 265.327L1412.29 264.5L1404.44 264.5L1404.44 265.327L1405.33 265.327L1405.33 269.782C1405.33 270.213 1405.4 270.609 1405.54 270.969C1405.68 271.33 1405.88 271.642 1406.14 271.908C1406.4 272.169 1406.71 272.374 1407.08 272.523C1407.46 272.668 1407.88 272.74 1408.35 272.74ZM1408.4 271.964C1407.66 271.964 1407.1 271.75 1406.72 271.323C1406.35 270.893 1406.16 270.284 1406.16 269.496L1406.16 265.327L1410.58 265.327L1410.58 269.496C1410.58 270.284 1410.4 270.893 1410.04 271.323C1409.69 271.75 1409.14 271.964 1408.4 271.964Z" fill="black"/>
<path d="M1394.16 272.74C1394.63 272.74 1395.06 272.666 1395.43 272.517C1395.81 272.367 1396.12 272.162 1396.39 271.901C1396.65 271.636 1396.86 271.323 1397 270.963C1397.14 270.603 1397.21 270.209 1397.21 269.782L1397.21 265.327L1398.09 265.327L1398.09 264.5L1390.25 264.5L1390.25 265.327L1391.14 265.327L1391.14 269.782C1391.14 270.213 1391.21 270.609 1391.35 270.969C1391.49 271.33 1391.69 271.642 1391.95 271.908C1392.2 272.169 1392.52 272.374 1392.89 272.523C1393.26 272.668 1393.69 272.74 1394.16 272.74ZM1394.2 271.964C1393.46 271.964 1392.91 271.75 1392.53 271.323C1392.15 270.893 1391.96 270.284 1391.96 269.496L1391.96 265.327L1396.38 265.327L1396.38 269.496C1396.38 270.284 1396.21 270.893 1395.85 271.323C1395.49 271.75 1394.94 271.964 1394.2 271.964Z" fill="black"/>
<path fill-rule="evenodd" clip-rule="evenodd" d="M1348.89 256.991C1371.99 253.342 1377.76 267.743 1387.38 281.552C1395.94 293.834 1401.81 308.913 1393.94 321.642C1384.29 337.269 1366.3 350.002 1349.14 343.448C1333.47 337.462 1345.09 311.818 1345.04 295.034C1345 278.642 1333.47 262.49 1348.89 256.991Z" fill="#DEFF79"/>
<path d="M1354.35 267.224L1362.14 271.303L1362.16 269.942L1356.32 266.992L1356.32 266.937L1362.26 263.785L1362.29 262.415L1354.35 266.685L1354.35 267.224Z" fill="black"/>
<path d="M1341.12 267.074C1341.11 267.848 1341.2 268.554 1341.4 269.194C1341.59 269.833 1341.89 270.387 1342.29 270.855C1342.7 271.311 1343.2 271.669 1343.79 271.929C1344.38 272.176 1345.07 272.306 1345.86 272.319C1346.67 272.333 1347.38 272.22 1348 271.981C1348.6 271.742 1349.11 271.401 1349.51 270.959C1349.92 270.504 1350.23 269.966 1350.44 269.346C1350.65 268.714 1350.76 268.011 1350.77 267.237L1349.03 267.208C1349.02 267.994 1348.9 268.672 1348.68 269.242C1348.45 269.812 1348.1 270.249 1347.63 270.553C1347.16 270.857 1346.58 271.003 1345.88 270.991C1345.17 270.979 1344.59 270.813 1344.15 270.494C1343.69 270.174 1343.37 269.726 1343.16 269.148C1342.95 268.571 1342.85 267.889 1342.86 267.104L1341.12 267.074Z" fill="black"/>
<path d="M1336.18 268.297C1336.81 268.307 1337.36 268.094 1337.83 267.657C1338.29 267.221 1338.53 266.685 1338.54 266.052C1338.55 265.425 1338.33 264.879 1337.88 264.415C1337.43 263.944 1336.89 263.703 1336.26 263.693C1335.63 263.682 1335.08 263.901 1334.63 264.351C1334.18 264.8 1333.95 265.341 1333.94 265.974C1333.93 266.608 1334.14 267.15 1334.58 267.602C1335.01 268.055 1335.55 268.286 1336.18 268.297Z" fill="black"/>
</g>
</g>
<defs>
<clipPath id="clip0_2021_140">
<rect width="1440" height="287" fill="white"/>
</clipPath>
<clipPath id="clip1_2021_140">
<rect width="106" height="49" fill="white" transform="translate(1334 238)"/>
</clipPath>
</defs>
</svg>
