<svg width="911" height="271" viewBox="0 0 911 271" fill="none" xmlns="http://www.w3.org/2000/svg">
<path d="M132.148 0.597891C128.263 1.60816 124.002 4.10017 102.635 17.5705C69.4261 38.5168 66.9198 40.5373 65.4159 46.3969C64.9147 48.4174 64.9773 49.5624 65.6039 51.3809C66.2932 53.4688 67.6717 54.4791 76.068 59.7325C81.394 63.0327 86.4693 65.9288 87.4092 66.0635C88.6624 66.3329 90.4169 65.5921 94.6777 62.8306C111.972 51.583 134.215 38.4494 135.97 38.4494C137.286 38.4494 142.424 41.5476 153.828 49.1583C174.568 63.0327 174.192 62.7633 175.069 64.7165C176.134 67.3432 176.009 96.8431 174.881 99.2004C174.255 100.48 169.743 103.713 159.655 110.111C140.544 122.167 142.862 122.167 125.631 110.381C112.661 101.558 101.445 94.5532 86.4693 86.2016C82.0206 83.6422 71.4312 77.3112 62.9722 72.0578C54.5133 66.737 46.5556 62.0898 45.1771 61.6183C41.7309 60.406 36.1542 61.0795 32.52 63.0327C28.9484 64.9859 14.5369 73.8763 8.02033 78.2541C4.63675 80.4767 3.00761 82.0258 1.75444 84.3831L-1.52588e-05 87.5486V177.126L1.44114 180.292C3.9475 185.814 6.95513 187.97 31.4548 202.316C40.8536 207.771 43.6733 208.377 46.3676 205.414C47.9341 203.797 47.9341 203.797 47.9341 189.384C47.9341 172.277 48.1221 172.883 40.5403 169.448C37.7833 168.236 35.089 166.754 34.5877 166.148C32.4573 163.454 32.2693 160.625 32.2693 133.55C32.2693 103.242 32.144 104.05 37.0314 100.952C39.1618 99.6045 40.415 99.2678 42.1695 99.5372C43.7359 99.7392 50.4404 103.713 62.3456 111.458C108.024 141.228 131.584 156.18 135.155 157.594C137.411 158.47 139.291 158.672 142.486 158.47C146.246 158.133 147.687 157.594 153.514 154.294C166.485 146.953 200.446 124.659 203.14 121.763C207.714 116.847 207.84 116.24 207.589 80.0053C207.401 48.9562 207.401 48.4174 206.023 45.454C205.208 43.7702 203.516 41.2782 202.263 39.9311C199.819 37.4391 148.69 3.76341 143.928 1.60816C140.293 -0.0756241 135.97 -0.479733 132.148 0.597891Z" fill="#5D5FEF"/>
<path d="M226.073 62.6287C225.322 63.2348 224.382 64.7839 224.006 66.1983C223.316 68.8924 223.254 91.8592 223.943 94.6206C224.256 95.9003 225.823 97.1126 230.585 99.8067C234.031 101.693 237.227 103.915 237.791 104.791C239.107 106.946 239.545 157.325 238.229 159.952C237.352 161.77 214.356 177.059 211.349 177.8C209.406 178.271 206.775 176.924 194.932 169.448C181.899 161.164 180.959 160.625 179.393 160.625C178.578 160.625 172.312 164.06 165.42 168.236C148.314 178.675 148 179.551 158.778 186.488C170.62 194.099 202.012 213.227 205.083 214.641C209.719 216.864 214.168 216.661 219.056 213.9C227.891 208.983 265.423 184.67 267.178 182.716C271 178.473 271 178.675 271 133.146C271 103.04 270.812 90.9836 270.248 89.0304C268.807 83.9117 265.549 81.2177 248.317 71.115C231.337 61.0796 229.206 60.2714 226.073 62.6287Z" fill="#5D5FEF"/>
<path d="M81.4566 158.335C68.9875 166.484 67.1704 167.966 65.3533 171.94C63.9121 175.105 63.9121 175.307 63.9121 199.352C63.9121 223.329 63.9121 223.598 65.3533 226.764C67.797 232.084 65.7919 230.67 110.906 259.294C128.326 270.34 130.268 271.283 135.531 270.946C139.667 270.744 139.98 270.542 155.081 261.045C179.706 245.487 189.794 238.752 190.922 237.203C192.426 235.183 192.426 229.929 190.984 228.043C189.731 226.494 168.49 213.832 167.049 213.832C166.172 213.832 162.913 215.718 146.622 225.955C141.484 229.188 136.659 232.017 135.907 232.286C134.967 232.556 131.96 231.074 124.942 226.696C102.009 212.552 97.1214 209.252 96.3068 207.568C95.1789 205.144 96.1815 194.502 97.8106 191.539C98.7505 189.922 101.507 187.902 110.092 182.85C116.17 179.281 121.621 175.913 122.185 175.442C122.749 174.97 123.125 173.825 123 172.882C122.874 171.535 121.496 170.323 116.546 167.158C106.332 160.624 92.1713 151.869 91.7954 151.869C91.6074 151.869 86.908 154.765 81.4566 158.335Z" fill="#5D5FEF"/>
<path d="M897.606 195.32C890.54 195.32 884.598 189.539 884.598 182.634C884.598 175.567 890.54 169.786 897.606 169.786C904.672 169.786 910.614 175.567 910.614 182.634C910.614 189.539 904.672 195.32 897.606 195.32Z" fill="#5D5FEF"/>
<path d="M820.064 195.48C803.202 195.48 792.924 185.684 792.924 170.748C792.924 156.135 803.523 146.981 822.312 145.535L846.08 143.769V142.002C846.08 131.243 839.656 126.907 829.699 126.907C818.137 126.907 811.713 131.724 811.713 140.075H795.011C795.011 122.892 809.143 111.65 830.663 111.65C852.022 111.65 865.19 123.213 865.19 145.214V193.392H848.007L846.562 181.669C843.189 189.859 832.429 195.48 820.064 195.48ZM826.487 180.705C838.532 180.705 846.24 173.479 846.24 161.273V157.098L829.699 158.383C817.494 159.507 812.837 163.522 812.837 169.945C812.837 177.172 817.655 180.705 826.487 180.705Z" fill="#5D5FEF"/>
<path d="M721.481 193.392H701.889V114.059H720.036L721.642 124.337C726.62 116.308 736.256 111.65 747.015 111.65C766.929 111.65 777.207 124.016 777.207 144.572V193.392H757.614V149.229C757.614 135.9 751.03 129.476 740.913 129.476C728.868 129.476 721.481 137.827 721.481 150.674V193.392Z" fill="#5D5FEF"/>
<path d="M688.627 113.737V131.884H681.401C667.268 131.884 658.436 139.432 658.436 154.849V193.391H638.844V114.219H657.312L658.436 125.782C661.808 117.913 669.356 112.613 679.955 112.613C682.685 112.613 685.415 112.934 688.627 113.737Z" fill="#5D5FEF"/>
<path d="M538.521 153.567C538.521 128.835 556.347 111.812 580.917 111.812C605.488 111.812 623.314 128.835 623.314 153.567C623.314 178.298 605.488 195.321 580.917 195.321C556.347 195.321 538.521 178.298 538.521 153.567ZM558.113 153.567C558.113 168.02 567.428 177.816 580.917 177.816C594.407 177.816 603.722 168.02 603.722 153.567C603.722 139.113 594.407 129.317 580.917 129.317C567.428 129.317 558.113 139.113 558.113 153.567Z" fill="#5D5FEF"/>
<path d="M442.856 153.567C442.856 128.835 460.681 111.812 485.252 111.812C509.823 111.812 527.648 128.835 527.648 153.567C527.648 178.298 509.823 195.321 485.252 195.321C460.681 195.321 442.856 178.298 442.856 153.567ZM462.448 153.567C462.448 168.02 471.762 177.816 485.252 177.816C498.742 177.816 508.056 168.02 508.056 153.567C508.056 139.113 498.742 129.317 485.252 129.317C471.762 129.317 462.448 139.113 462.448 153.567Z" fill="#5D5FEF"/>
<path d="M398.169 152.924H372.314V193.393H351.758V76H398.169C421.776 76 437.033 91.4169 437.033 114.382C437.033 137.025 421.616 152.924 398.169 152.924ZM394.154 94.3075H372.314V134.616H393.833C407.965 134.616 415.513 127.068 415.513 114.221C415.513 101.374 407.805 94.3075 394.154 94.3075Z" fill="#5D5FEF"/>
</svg>
