<svg width="911" height="271" viewBox="0 0 911 271" fill="none" xmlns="http://www.w3.org/2000/svg">
<path d="M132.148 0.597891C128.263 1.60816 124.002 4.10017 102.635 17.5705C69.4261 38.5168 66.9198 40.5373 65.4159 46.3969C64.9147 48.4174 64.9773 49.5624 65.6039 51.3809C66.2932 53.4688 67.6717 54.4791 76.068 59.7325C81.394 63.0327 86.4693 65.9288 87.4092 66.0635C88.6624 66.3329 90.4169 65.5921 94.6777 62.8306C111.972 51.583 134.215 38.4494 135.97 38.4494C137.286 38.4494 142.424 41.5476 153.828 49.1583C174.568 63.0327 174.192 62.7633 175.069 64.7165C176.134 67.3432 176.009 96.8431 174.881 99.2004C174.255 100.48 169.743 103.713 159.655 110.111C140.544 122.167 142.862 122.167 125.631 110.381C112.661 101.558 101.445 94.5532 86.4693 86.2016C82.0206 83.6422 71.4312 77.3112 62.9722 72.0578C54.5133 66.737 46.5556 62.0898 45.1771 61.6183C41.7309 60.406 36.1542 61.0795 32.52 63.0327C28.9484 64.9859 14.5369 73.8763 8.02033 78.2541C4.63675 80.4767 3.00761 82.0258 1.75444 84.3831L-1.52588e-05 87.5486V177.126L1.44114 180.292C3.9475 185.814 6.95513 187.97 31.4548 202.316C40.8536 207.771 43.6733 208.377 46.3676 205.414C47.9341 203.797 47.9341 203.797 47.9341 189.384C47.9341 172.277 48.1221 172.883 40.5403 169.448C37.7833 168.236 35.089 166.754 34.5877 166.148C32.4573 163.454 32.2693 160.625 32.2693 133.55C32.2693 103.242 32.144 104.05 37.0314 100.952C39.1618 99.6045 40.415 99.2678 42.1695 99.5372C43.7359 99.7392 50.4404 103.713 62.3456 111.458C108.024 141.228 131.584 156.18 135.155 157.594C137.411 158.47 139.291 158.672 142.486 158.47C146.246 158.133 147.687 157.594 153.514 154.294C166.485 146.953 200.446 124.659 203.14 121.763C207.714 116.847 207.84 116.24 207.589 80.0053C207.401 48.9562 207.401 48.4174 206.023 45.454C205.208 43.7702 203.516 41.2782 202.263 39.9311C199.819 37.4391 148.69 3.76341 143.928 1.60816C140.293 -0.0756241 135.97 -0.479733 132.148 0.597891Z" fill="#6C5CE7"/>
<path d="M226.073 62.6287C225.322 63.2348 224.382 64.7839 224.006 66.1983C223.316 68.8924 223.254 91.8592 223.943 94.6206C224.256 95.9003 225.823 97.1126 230.585 99.8067C234.031 101.693 237.227 103.915 237.791 104.791C239.107 106.946 239.545 157.325 238.229 159.952C237.352 161.77 214.356 177.059 211.349 177.8C209.406 178.271 206.775 176.924 194.932 169.448C181.899 161.164 180.959 160.625 179.393 160.625C178.578 160.625 172.312 164.06 165.42 168.236C148.314 178.675 148 179.551 158.778 186.488C170.62 194.099 202.012 213.227 205.083 214.641C209.719 216.864 214.168 216.661 219.056 213.9C227.891 208.983 265.423 184.67 267.178 182.716C271 178.473 271 178.675 271 133.146C271 103.04 270.812 90.9836 270.248 89.0304C268.807 83.9117 265.549 81.2177 248.317 71.115C231.337 61.0796 229.206 60.2714 226.073 62.6287Z" fill="#6C5CE7"/>
<path d="M81.4566 158.335C68.9875 166.484 67.1704 167.966 65.3533 171.94C63.9121 175.105 63.9121 175.307 63.9121 199.352C63.9121 223.329 63.9121 223.598 65.3533 226.764C67.797 232.084 65.7919 230.67 110.906 259.294C128.326 270.34 130.268 271.283 135.531 270.946C139.667 270.744 139.98 270.542 155.081 261.045C179.706 245.487 189.794 238.752 190.922 237.203C192.426 235.183 192.426 229.929 190.984 228.043C189.731 226.494 168.49 213.832 167.049 213.832C166.172 213.832 162.913 215.718 146.622 225.955C141.484 229.188 136.659 232.017 135.907 232.286C134.967 232.556 131.96 231.074 124.942 226.696C102.009 212.552 97.1214 209.252 96.3068 207.568C95.1789 205.144 96.1815 194.502 97.8106 191.539C98.7505 189.922 101.507 187.902 110.092 182.85C116.17 179.281 121.621 175.913 122.185 175.442C122.749 174.97 123.125 173.825 123 172.882C122.874 171.535 121.496 170.323 116.546 167.158C106.332 160.624 92.1713 151.869 91.7954 151.869C91.6074 151.869 86.908 154.765 81.4566 158.335Z" fill="#6C5CE7"/>
<path d="M897.606 161.32C890.54 161.32 884.598 155.539 884.598 148.634C884.598 141.567 890.54 135.786 897.606 135.786C904.672 135.786 910.614 141.567 910.614 148.634C910.614 155.539 904.672 161.32 897.606 161.32Z" fill="#5D5FEF"/>
<path d="M820.064 161.48C803.202 161.48 792.924 151.684 792.924 136.748C792.924 122.135 803.523 112.981 822.312 111.535L846.08 109.769V108.002C846.08 97.2427 839.656 92.9067 829.699 92.9067C818.137 92.9067 811.713 97.7245 811.713 106.075H795.011C795.011 88.8919 809.143 77.6504 830.663 77.6504C852.022 77.6504 865.19 89.2131 865.19 111.214V159.392H848.007L846.562 147.669C843.189 155.859 832.429 161.48 820.064 161.48ZM826.487 146.705C838.532 146.705 846.24 139.479 846.24 127.273V123.098L829.699 124.383C817.494 125.507 812.837 129.522 812.837 135.945C812.837 143.172 817.655 146.705 826.487 146.705Z" fill="#5D5FEF"/>
<path d="M721.481 159.392H701.889V80.0593H720.036L721.642 90.3372C726.62 82.3076 736.256 77.6504 747.015 77.6504C766.929 77.6504 777.207 90.016 777.207 110.572V159.392H757.614V115.229C757.614 101.9 751.03 95.4762 740.913 95.4762C728.868 95.4762 721.481 103.827 721.481 116.674V159.392Z" fill="#5D5FEF"/>
<path d="M688.627 79.7374V97.8844H681.401C667.268 97.8844 658.436 105.432 658.436 120.849V159.391H638.844V80.2192H657.312L658.436 91.7819C661.808 83.9128 669.356 78.6133 679.955 78.6133C682.685 78.6133 685.415 78.9345 688.627 79.7374Z" fill="#5D5FEF"/>
<path d="M538.521 119.567C538.521 94.8353 556.347 77.8125 580.917 77.8125C605.488 77.8125 623.314 94.8353 623.314 119.567C623.314 144.298 605.488 161.321 580.917 161.321C556.347 161.321 538.521 144.298 538.521 119.567ZM558.113 119.567C558.113 134.02 567.428 143.816 580.917 143.816C594.407 143.816 603.722 134.02 603.722 119.567C603.722 105.113 594.407 95.3171 580.917 95.3171C567.428 95.3171 558.113 105.113 558.113 119.567Z" fill="#5D5FEF"/>
<path d="M442.856 119.567C442.856 94.8353 460.681 77.8125 485.252 77.8125C509.823 77.8125 527.648 94.8353 527.648 119.567C527.648 144.298 509.823 161.321 485.252 161.321C460.681 161.321 442.856 144.298 442.856 119.567ZM462.448 119.567C462.448 134.02 471.762 143.816 485.252 143.816C498.742 143.816 508.056 134.02 508.056 119.567C508.056 105.113 498.742 95.3171 485.252 95.3171C471.762 95.3171 462.448 105.113 462.448 119.567Z" fill="#5D5FEF"/>
<path d="M398.169 118.924H372.314V159.393H351.758V42H398.169C421.776 42 437.033 57.4169 437.033 80.3816C437.033 103.025 421.616 118.924 398.169 118.924ZM394.154 60.3075H372.314V100.616H393.833C407.965 100.616 415.513 93.0684 415.513 80.221C415.513 67.3736 407.805 60.3075 394.154 60.3075Z" fill="#5D5FEF"/>
<path d="M786.783 200.068V201.674H785.338C781.765 201.674 779.436 204.283 779.436 207.897V219.62H777.589V200.349H779.316L779.476 203.44C780.239 201.272 782.367 199.867 785.097 199.867C785.699 199.867 786.141 199.907 786.783 200.068Z" fill="white"/>
<path d="M773.727 200.068V201.674H772.282C768.709 201.674 766.38 204.283 766.38 207.897V219.62H764.533V200.349H766.26L766.42 203.44C767.183 201.272 769.311 199.867 772.041 199.867C772.643 199.867 773.085 199.907 773.727 200.068Z" fill="white"/>
<path d="M744.528 227.765V226.279H746.334C747.9 226.279 749.827 226.279 750.831 223.549L751.794 220.94L743.966 200.344H745.893L752.678 218.41L759.182 200.344H761.069L752.517 224.071C751.513 226.842 749.747 228.006 747.137 228.006C746.093 228.006 745.331 227.926 744.528 227.765Z" fill="white"/>
<path d="M731.962 220.102C727.827 220.102 725.458 217.813 725.458 214.521C725.458 210.988 728.188 208.74 732.685 208.379L739.309 207.857V207.134C739.309 202.798 736.74 201.553 733.689 201.553C730.115 201.553 727.988 203.24 727.988 206.05H726.141C726.141 202.276 729.192 199.867 733.729 199.867C737.864 199.867 741.156 201.875 741.156 206.853V219.62H739.671L739.309 216.007C737.984 218.616 735.295 220.102 731.962 220.102ZM732.203 218.456C736.74 218.456 739.309 215.164 739.309 210.426V209.382L732.846 209.904C728.951 210.225 727.305 212.112 727.305 214.481C727.305 217.131 729.312 218.456 732.203 218.456Z" fill="white"/>
<path d="M709.074 191.114V217.853H722.644V219.619H707.147V191.114H709.074Z" fill="white"/>
<path d="M675.327 227.765V226.279H677.134C678.699 226.279 680.627 226.279 681.63 223.549L682.594 220.94L674.765 200.344H676.692L683.477 218.41L689.981 200.344H691.868L683.316 224.071C682.313 226.842 680.546 228.006 677.937 228.006C676.893 228.006 676.13 227.926 675.327 227.765Z" fill="white"/>
<path d="M656.631 219.615H655.145V190.628H656.992V204.519C658.397 201.388 661.047 199.862 664.46 199.862C670.12 199.862 673.332 204.278 673.332 209.979C673.332 215.68 670.12 220.097 664.46 220.097C661.127 220.097 658.357 218.571 656.912 215.279L656.631 219.615ZM657.032 209.979C657.032 214.877 659.642 218.41 664.259 218.41C668.836 218.41 671.445 214.877 671.445 209.979C671.445 205.121 668.836 201.548 664.259 201.548C659.642 201.548 657.032 205.121 657.032 209.979Z" fill="white"/>
<path d="M640.031 200.068V201.674H638.585C635.012 201.674 632.684 204.283 632.684 207.897V219.62H630.837V200.349H632.563L632.724 203.44C633.487 201.272 635.614 199.867 638.344 199.867C638.947 199.867 639.388 199.907 640.031 200.068Z" fill="white"/>
<path d="M617.964 220.102C612.384 220.102 608.69 216.087 608.69 210.025C608.69 204.002 612.344 199.867 617.723 199.867C622.742 199.867 626.195 203.481 626.195 208.74V210.025H610.537C610.697 215.284 613.428 218.416 617.964 218.416C621.377 218.416 623.545 216.93 624.308 214.08H626.195C625.071 218.054 622.3 220.102 617.964 220.102ZM617.723 201.553C613.789 201.553 611.019 204.283 610.577 208.499H624.308C624.308 204.324 621.698 201.553 617.723 201.553Z" fill="white"/>
<path d="M590.718 227.765V226.279H592.525C594.09 226.279 596.018 226.279 597.021 223.549L597.985 220.94L590.156 200.344H592.083L598.868 218.41L605.372 200.344H607.259L598.707 224.071C597.704 226.842 595.937 228.006 593.328 228.006C592.284 228.006 591.521 227.926 590.718 227.765Z" fill="white"/>
<path d="M578.153 220.102C574.017 220.102 571.649 217.813 571.649 214.521C571.649 210.988 574.379 208.74 578.875 208.379L585.5 207.857V207.134C585.5 202.798 582.93 201.553 579.879 201.553C576.306 201.553 574.178 203.24 574.178 206.05H572.331C572.331 202.276 575.382 199.867 579.919 199.867C584.054 199.867 587.346 201.875 587.346 206.853V219.62H585.861L585.5 216.007C584.175 218.616 581.485 220.102 578.153 220.102ZM578.393 218.456C582.93 218.456 585.5 215.164 585.5 210.426V209.382L579.036 209.904C575.141 210.225 573.495 212.112 573.495 214.481C573.495 217.131 575.503 218.456 578.393 218.456Z" fill="white"/>
<path d="M555.264 191.114V217.853H568.834V219.619H553.337V191.114H555.264Z" fill="white"/>
<path d="M546.913 218.45C546.913 220.578 545.187 222.505 543.059 222.866V221.581C544.304 221.341 545.267 220.337 545.267 219.333C545.066 219.494 544.745 219.614 544.223 219.614C543.34 219.614 542.497 218.972 542.497 217.727C542.497 216.563 543.34 215.68 544.585 215.68C545.749 215.68 546.913 216.643 546.913 218.45Z" fill="white"/>
<path d="M531.081 220.102C525.501 220.102 521.807 216.087 521.807 210.025C521.807 204.002 525.46 199.867 530.84 199.867C535.859 199.867 539.311 203.481 539.311 208.74V210.025H523.654C523.814 215.284 526.544 218.416 531.081 218.416C534.494 218.416 536.662 216.93 537.425 214.08H539.311C538.187 218.054 535.417 220.102 531.081 220.102ZM530.84 201.553C526.906 201.553 524.135 204.283 523.694 208.499H537.425C537.425 204.324 534.815 201.553 530.84 201.553Z" fill="white"/>
<path d="M515.688 219.62H513.842V201.955H509.947V200.349H513.842V194.246H515.688V200.349H519.583V201.955H515.688V219.62Z" fill="white"/>
<path d="M497.543 220.102C493.407 220.102 491.039 217.813 491.039 214.521C491.039 210.988 493.769 208.74 498.265 208.379L504.89 207.857V207.134C504.89 202.798 502.32 201.553 499.269 201.553C495.696 201.553 493.568 203.24 493.568 206.05H491.721C491.721 202.276 494.773 199.867 499.309 199.867C503.445 199.867 506.737 201.875 506.737 206.853V219.62H505.251L504.89 216.007C503.565 218.616 500.875 220.102 497.543 220.102ZM497.784 218.456C502.32 218.456 504.89 215.164 504.89 210.426V209.382L498.426 209.904C494.532 210.225 492.886 212.112 492.886 214.481C492.886 217.131 494.893 218.456 497.784 218.456Z" fill="white"/>
<path d="M479.406 220.102C473.825 220.102 470.132 216.087 470.132 210.025C470.132 204.002 473.785 199.867 479.165 199.867C484.184 199.867 487.636 203.481 487.636 208.74V210.025H471.979C472.139 215.284 474.869 218.416 479.406 218.416C482.819 218.416 484.987 216.93 485.749 214.08H487.636C486.512 218.054 483.742 220.102 479.406 220.102ZM479.165 201.553C475.231 201.553 472.46 204.283 472.019 208.499H485.749C485.749 204.324 483.14 201.553 479.165 201.553Z" fill="white"/>
<path d="M468.499 200.068V201.674H467.054C463.48 201.674 461.152 204.283 461.152 207.897V219.62H459.305V200.349H461.031L461.192 203.44C461.955 201.272 464.083 199.867 466.813 199.867C467.415 199.867 467.857 199.907 468.499 200.068Z" fill="white"/>
<path d="M437.511 210.065C437.511 203.962 441.125 199.867 446.665 199.867C450.8 199.867 453.892 202.316 454.775 205.97H452.888C452.085 203.119 449.516 201.513 446.665 201.513C442.369 201.513 439.318 204.805 439.318 210.025C439.318 215.003 442.128 218.416 446.424 218.416C449.516 218.416 452.085 216.649 452.968 214.039H454.855C453.812 217.693 450.519 220.102 446.424 220.102C441.125 220.102 437.511 216.087 437.511 210.065Z" fill="white"/>
<path d="M409.04 214.401H410.847C410.847 216.89 412.694 218.416 415.665 218.416C418.917 218.416 420.924 216.97 420.924 214.602C420.924 212.715 420.001 211.751 417.511 211.109L414.259 210.266C410.967 209.422 409.401 207.576 409.401 205.207C409.401 201.995 412.051 199.867 416.026 199.867C420.001 199.867 422.49 201.995 422.61 205.488H420.804C420.683 202.999 418.917 201.553 416.026 201.553C412.934 201.553 411.248 202.838 411.248 205.207C411.248 206.853 412.372 208.017 414.701 208.619L417.913 209.463C421.285 210.346 422.771 211.912 422.771 214.602C422.771 217.894 419.96 220.102 415.745 220.102C411.65 220.102 409.04 217.894 409.04 214.401Z" fill="white"/>
<path d="M406.895 193.359C406.895 195.487 405.169 197.414 403.041 197.775V196.491C404.286 196.25 405.249 195.246 405.249 194.242C405.048 194.403 404.727 194.523 404.205 194.523C403.322 194.523 402.479 193.881 402.479 192.636C402.479 191.472 403.322 190.589 404.567 190.589C405.731 190.589 406.895 191.552 406.895 193.359Z" fill="white"/>
<path d="M395.362 219.62H393.515V201.955H389.62V200.349H393.515V194.246H395.362V200.349H399.256V201.955H395.362V219.62Z" fill="white"/>
<path d="M379.192 220.102C373.612 220.102 369.918 216.087 369.918 210.025C369.918 204.002 373.572 199.867 378.951 199.867C383.97 199.867 387.423 203.481 387.423 208.74V210.025H371.765C371.925 215.284 374.656 218.416 379.192 218.416C382.605 218.416 384.773 216.93 385.536 214.08H387.423C386.299 218.054 383.528 220.102 379.192 220.102ZM378.951 201.553C375.017 201.553 372.247 204.283 371.805 208.499H385.536C385.536 204.324 382.926 201.553 378.951 201.553Z" fill="white"/>
<path d="M354.327 191.114V217.853H367.897V219.619H352.4V191.114H354.327Z" fill="white"/>
</svg>
